<svg width="172" height="195" viewBox="0 0 172 195" fill="none" xmlns="http://www.w3.org/2000/svg">
<g filter="url(#filter0_d_955_3444)">
<rect x="4" width="164" height="187" rx="10" fill="#F4F4FC"/>
</g>
<ellipse cx="84.7931" cy="76.0639" rx="34.9914" ry="37.0043" fill="white"/>
<path opacity="0.5" d="M86.7844 34.707C78.626 34.707 70.6507 37.1752 63.8672 41.7994C57.0836 46.4235 51.7965 52.996 48.6744 60.6858C45.5523 68.3755 44.7354 76.837 46.327 85.0004C47.9187 93.1638 51.8474 100.662 57.6163 106.548C63.3852 112.433 70.7353 116.441 78.737 118.065C86.7387 119.689 95.0327 118.855 102.57 115.67C110.108 112.485 116.55 107.091 121.083 100.171C125.615 93.25 128.034 85.1137 128.034 76.7904C128.034 71.2639 126.967 65.7916 124.894 60.6858C122.821 55.58 119.783 50.9408 115.953 47.033C112.122 43.1252 107.575 40.0253 102.57 37.9104C97.5655 35.7955 92.2015 34.707 86.7844 34.707ZM86.7844 110.457C80.2577 110.457 73.8774 108.483 68.4506 104.783C63.0238 101.084 58.7941 95.8258 56.2964 89.674C53.7987 83.5223 53.1452 76.753 54.4185 70.2223C55.6918 63.6916 58.8348 57.6928 63.4499 52.9844C68.0651 48.2761 73.9451 45.0696 80.3465 43.7706C86.7478 42.4716 93.383 43.1383 99.413 45.6864C105.443 48.2346 110.597 52.5497 114.223 58.0862C117.849 63.6226 119.784 70.1317 119.784 76.7904C119.784 85.7193 116.308 94.2826 110.119 100.596C103.93 106.91 95.5366 110.457 86.7844 110.457Z" fill="#0C538B"/>
<path d="M119.784 76.7904H128.034C128.034 71.2639 126.967 65.7916 124.894 60.6858C122.821 55.58 119.783 50.9408 115.953 47.033C112.122 43.1252 107.575 40.0253 102.57 37.9104C97.5654 35.7955 92.2015 34.707 86.7844 34.707V43.1237C95.5366 43.1237 103.93 46.6707 110.119 52.9844C116.308 59.2982 119.784 67.8614 119.784 76.7904Z" fill="#0C538B"/>
<path d="M90.725 77C90.725 77.5933 90.5359 78.1734 90.1815 78.6667C89.8271 79.1601 89.3234 79.5446 88.7342 79.7716C88.1449 79.9987 87.4964 80.0581 86.8708 79.9424C86.2452 79.8266 85.6706 79.5409 85.2196 79.1213C84.7686 78.7018 84.4614 78.1672 84.337 77.5853C84.2125 77.0033 84.2764 76.4001 84.5205 75.8519C84.7646 75.3038 85.1779 74.8352 85.7083 74.5056C86.2386 74.1759 86.8622 74 87.5 74C88.3553 74 89.1756 74.3161 89.7804 74.8787C90.3852 75.4413 90.725 76.2044 90.725 77ZM105.775 74C105.137 74 104.514 74.1759 103.983 74.5056C103.453 74.8352 103.04 75.3038 102.795 75.8519C102.551 76.4001 102.488 77.0033 102.612 77.5853C102.736 78.1672 103.044 78.7018 103.495 79.1213C103.946 79.5409 104.52 79.8266 105.146 79.9424C105.771 80.0581 106.42 79.9987 107.009 79.7716C107.598 79.5446 108.102 79.1601 108.456 78.6667C108.811 78.1734 109 77.5933 109 77C109 76.2044 108.66 75.4413 108.055 74.8787C107.451 74.3161 106.63 74 105.775 74ZM69.225 74C68.5872 74 67.9636 74.1759 67.4333 74.5056C66.9029 74.8352 66.4896 75.3038 66.2455 75.8519C66.0014 76.4001 65.9375 77.0033 66.062 77.5853C66.1864 78.1672 66.4936 78.7018 66.9446 79.1213C67.3956 79.5409 67.9702 79.8266 68.5958 79.9424C69.2214 80.0581 69.8699 79.9987 70.4592 79.7716C71.0484 79.5446 71.5521 79.1601 71.9065 78.6667C72.2609 78.1734 72.45 77.5933 72.45 77C72.45 76.2044 72.1102 75.4413 71.5054 74.8787C70.9006 74.3161 70.0803 74 69.225 74Z" fill="#0C538B"/>
<path d="M37.8629 152V140.364H42.4538C43.3364 140.364 44.0883 140.532 44.7095 140.869C45.3307 141.203 45.8042 141.667 46.13 142.261C46.4595 142.852 46.6243 143.534 46.6243 144.307C46.6243 145.08 46.4576 145.761 46.1243 146.352C45.791 146.943 45.308 147.403 44.6754 147.733C44.0466 148.062 43.2853 148.227 42.3913 148.227H39.4652V146.256H41.9936C42.4671 146.256 42.8572 146.174 43.1641 146.011C43.4747 145.845 43.7057 145.616 43.8572 145.324C44.0125 145.028 44.0902 144.689 44.0902 144.307C44.0902 143.92 44.0125 143.583 43.8572 143.295C43.7057 143.004 43.4747 142.778 43.1641 142.619C42.8535 142.456 42.4595 142.375 41.9822 142.375H40.3232V152H37.8629ZM48.7223 152V140.364H53.3132C54.192 140.364 54.942 140.521 55.5632 140.835C56.1882 141.146 56.6636 141.587 56.9893 142.159C57.3189 142.727 57.4837 143.396 57.4837 144.165C57.4837 144.937 57.317 145.602 56.9837 146.159C56.6503 146.712 56.1674 147.136 55.5348 147.432C54.906 147.727 54.1446 147.875 53.2507 147.875H50.1768V145.898H52.853C53.3227 145.898 53.7128 145.833 54.0234 145.705C54.334 145.576 54.5651 145.383 54.7166 145.125C54.8719 144.867 54.9496 144.547 54.9496 144.165C54.9496 143.778 54.8719 143.453 54.7166 143.188C54.5651 142.922 54.3321 142.722 54.0178 142.585C53.7071 142.445 53.3151 142.375 52.8416 142.375H51.1825V152H48.7223ZM55.0064 146.705L57.8984 152H55.1825L52.353 146.705H55.0064ZM68.522 143.273V145.091H63.2663V143.273H68.522ZM64.4595 141.182H66.88V149.318C66.88 149.542 66.9141 149.716 66.9822 149.841C67.0504 149.962 67.1451 150.047 67.2663 150.097C67.3913 150.146 67.5353 150.17 67.6982 150.17C67.8118 150.17 67.9254 150.161 68.0391 150.142C68.1527 150.119 68.2398 150.102 68.3004 150.091L68.6811 151.892C68.5599 151.93 68.3894 151.973 68.1697 152.023C67.95 152.076 67.683 152.108 67.3686 152.119C66.7853 152.142 66.2739 152.064 65.8345 151.886C65.3989 151.708 65.0599 151.432 64.8175 151.057C64.575 150.682 64.4557 150.208 64.4595 149.636V141.182ZM74.4822 152.17C73.5845 152.17 72.8118 151.989 72.1641 151.625C71.5201 151.258 71.0239 150.739 70.6754 150.068C70.3269 149.394 70.1527 148.597 70.1527 147.676C70.1527 146.778 70.3269 145.991 70.6754 145.312C71.0239 144.634 71.5144 144.106 72.147 143.727C72.7834 143.348 73.5296 143.159 74.3857 143.159C74.9614 143.159 75.4974 143.252 75.9936 143.438C76.4936 143.619 76.9292 143.894 77.3004 144.261C77.6754 144.629 77.9671 145.091 78.1754 145.648C78.3838 146.201 78.4879 146.848 78.4879 147.591V148.256H71.1186V146.756H76.2095C76.2095 146.407 76.1338 146.098 75.9822 145.83C75.8307 145.561 75.6205 145.35 75.3516 145.199C75.0864 145.044 74.7777 144.966 74.4254 144.966C74.058 144.966 73.7322 145.051 73.4482 145.222C73.1679 145.388 72.9482 145.614 72.7891 145.898C72.63 146.178 72.5485 146.491 72.5447 146.835V148.261C72.5447 148.693 72.6243 149.066 72.7834 149.381C72.9463 149.695 73.1754 149.938 73.4709 150.108C73.7663 150.278 74.1167 150.364 74.522 150.364C74.791 150.364 75.0372 150.326 75.2607 150.25C75.4841 150.174 75.6754 150.061 75.8345 149.909C75.9936 149.758 76.1148 149.572 76.1982 149.352L78.4368 149.5C78.3232 150.038 78.0902 150.508 77.7379 150.909C77.3894 151.307 76.9387 151.617 76.3857 151.841C75.8364 152.061 75.2019 152.17 74.4822 152.17ZM80.5675 152V143.273H82.8743V144.812H82.9766C83.1584 144.301 83.4614 143.898 83.8857 143.602C84.3099 143.307 84.8175 143.159 85.4084 143.159C86.0069 143.159 86.5163 143.309 86.9368 143.608C87.3572 143.903 87.6375 144.305 87.7777 144.812H87.8686C88.0466 144.312 88.3686 143.913 88.8345 143.614C89.3042 143.311 89.8591 143.159 90.4993 143.159C91.3137 143.159 91.9747 143.419 92.4822 143.938C92.9936 144.453 93.2493 145.184 93.2493 146.131V152H90.8345V146.608C90.8345 146.123 90.7057 145.759 90.4482 145.517C90.1906 145.275 89.8686 145.153 89.4822 145.153C89.0429 145.153 88.7 145.294 88.4538 145.574C88.2076 145.85 88.0845 146.216 88.0845 146.67V152H85.7379V146.557C85.7379 146.129 85.6148 145.788 85.3686 145.534C85.1262 145.28 84.8061 145.153 84.4084 145.153C84.1394 145.153 83.897 145.222 83.6811 145.358C83.469 145.491 83.3004 145.678 83.1754 145.92C83.0504 146.159 82.9879 146.439 82.9879 146.761V152H80.5675ZM95.6612 155.273V143.273H98.0476V144.739H98.1555C98.2616 144.504 98.415 144.265 98.6158 144.023C98.8203 143.777 99.0855 143.572 99.4112 143.409C99.7408 143.242 100.15 143.159 100.638 143.159C101.275 143.159 101.862 143.326 102.4 143.659C102.938 143.989 103.368 144.487 103.69 145.153C104.012 145.816 104.173 146.648 104.173 147.648C104.173 148.621 104.015 149.443 103.701 150.114C103.39 150.78 102.966 151.286 102.428 151.631C101.894 151.972 101.296 152.142 100.633 152.142C100.163 152.142 99.7635 152.064 99.4339 151.909C99.1082 151.754 98.8411 151.559 98.6328 151.324C98.4245 151.085 98.2654 150.845 98.1555 150.602H98.0817V155.273H95.6612ZM98.0305 147.636C98.0305 148.155 98.1025 148.608 98.2464 148.994C98.3904 149.381 98.5987 149.682 98.8714 149.898C99.1442 150.11 99.4756 150.216 99.8658 150.216C100.26 150.216 100.593 150.108 100.866 149.892C101.138 149.672 101.345 149.369 101.485 148.983C101.629 148.593 101.701 148.144 101.701 147.636C101.701 147.133 101.631 146.689 101.491 146.307C101.351 145.924 101.144 145.625 100.871 145.409C100.599 145.193 100.263 145.085 99.8658 145.085C99.4718 145.085 99.1385 145.189 98.8658 145.398C98.5968 145.606 98.3904 145.902 98.2464 146.284C98.1025 146.667 98.0305 147.117 98.0305 147.636ZM108.707 140.364V152H106.286V140.364H108.707ZM113.634 152.165C113.077 152.165 112.581 152.068 112.146 151.875C111.71 151.678 111.365 151.388 111.112 151.006C110.862 150.619 110.737 150.138 110.737 149.562C110.737 149.078 110.826 148.67 111.004 148.341C111.182 148.011 111.424 147.746 111.731 147.545C112.038 147.345 112.386 147.193 112.776 147.091C113.17 146.989 113.583 146.917 114.015 146.875C114.522 146.822 114.932 146.773 115.242 146.727C115.553 146.678 115.778 146.606 115.918 146.511C116.058 146.417 116.129 146.277 116.129 146.091V146.057C116.129 145.697 116.015 145.419 115.788 145.222C115.564 145.025 115.246 144.926 114.833 144.926C114.397 144.926 114.051 145.023 113.793 145.216C113.536 145.405 113.365 145.644 113.282 145.932L111.043 145.75C111.157 145.22 111.38 144.761 111.714 144.375C112.047 143.985 112.477 143.686 113.004 143.477C113.534 143.265 114.147 143.159 114.844 143.159C115.329 143.159 115.793 143.216 116.237 143.33C116.683 143.443 117.079 143.619 117.424 143.858C117.772 144.097 118.047 144.403 118.248 144.778C118.449 145.15 118.549 145.595 118.549 146.114V152H116.254V150.79H116.185C116.045 151.062 115.858 151.303 115.623 151.511C115.388 151.716 115.106 151.877 114.776 151.994C114.447 152.108 114.066 152.165 113.634 152.165ZM114.327 150.494C114.683 150.494 114.998 150.424 115.271 150.284C115.543 150.14 115.757 149.947 115.913 149.705C116.068 149.462 116.146 149.187 116.146 148.881V147.955C116.07 148.004 115.966 148.049 115.833 148.091C115.704 148.129 115.558 148.165 115.396 148.199C115.233 148.229 115.07 148.258 114.907 148.284C114.744 148.307 114.596 148.328 114.464 148.347C114.18 148.388 113.932 148.455 113.719 148.545C113.507 148.636 113.343 148.759 113.225 148.915C113.108 149.066 113.049 149.256 113.049 149.483C113.049 149.812 113.168 150.064 113.407 150.239C113.649 150.409 113.956 150.494 114.327 150.494ZM125.569 143.273V145.091H120.313V143.273H125.569ZM121.506 141.182H123.927V149.318C123.927 149.542 123.961 149.716 124.029 149.841C124.097 149.962 124.192 150.047 124.313 150.097C124.438 150.146 124.582 150.17 124.745 150.17C124.859 150.17 124.972 150.161 125.086 150.142C125.2 150.119 125.287 150.102 125.347 150.091L125.728 151.892C125.607 151.93 125.436 151.973 125.217 152.023C124.997 152.076 124.73 152.108 124.415 152.119C123.832 152.142 123.321 152.064 122.881 151.886C122.446 151.708 122.107 151.432 121.864 151.057C121.622 150.682 121.503 150.208 121.506 149.636V141.182ZM131.529 152.17C130.631 152.17 129.859 151.989 129.211 151.625C128.567 151.258 128.071 150.739 127.722 150.068C127.374 149.394 127.2 148.597 127.2 147.676C127.2 146.778 127.374 145.991 127.722 145.312C128.071 144.634 128.561 144.106 129.194 143.727C129.83 143.348 130.576 143.159 131.433 143.159C132.008 143.159 132.544 143.252 133.04 143.438C133.54 143.619 133.976 143.894 134.347 144.261C134.722 144.629 135.014 145.091 135.222 145.648C135.431 146.201 135.535 146.848 135.535 147.591V148.256H128.165V146.756H133.256C133.256 146.407 133.181 146.098 133.029 145.83C132.878 145.561 132.667 145.35 132.398 145.199C132.133 145.044 131.825 144.966 131.472 144.966C131.105 144.966 130.779 145.051 130.495 145.222C130.215 145.388 129.995 145.614 129.836 145.898C129.677 146.178 129.595 146.491 129.592 146.835V148.261C129.592 148.693 129.671 149.066 129.83 149.381C129.993 149.695 130.222 149.938 130.518 150.108C130.813 150.278 131.164 150.364 131.569 150.364C131.838 150.364 132.084 150.326 132.308 150.25C132.531 150.174 132.722 150.061 132.881 149.909C133.04 149.758 133.162 149.572 133.245 149.352L135.484 149.5C135.37 150.038 135.137 150.508 134.785 150.909C134.436 151.307 133.986 151.617 133.433 151.841C132.883 152.061 132.249 152.17 131.529 152.17Z" fill="black"/>
<path d="M69.794 168.091C69.4039 168.091 69.0639 167.993 68.7741 167.798C68.4863 167.603 68.2628 167.336 68.1037 166.997C67.9446 166.658 67.8651 166.272 67.8651 165.838C67.8651 165.401 67.9455 165.011 68.1065 164.67C68.2694 164.33 68.4948 164.062 68.7827 163.869C69.0705 163.674 69.4048 163.577 69.7855 163.577C70.0772 163.577 70.3414 163.634 70.5781 163.747C70.8149 163.859 71.0099 164.017 71.1634 164.222C71.3187 164.424 71.4162 164.661 71.456 164.932H70.9446C70.8916 164.686 70.7637 164.475 70.5611 164.301C70.3603 164.125 70.1046 164.037 69.794 164.037C69.5156 164.037 69.2694 164.113 69.0554 164.264C68.8414 164.414 68.6738 164.623 68.5526 164.892C68.4332 165.159 68.3736 165.469 68.3736 165.821C68.3736 166.175 68.4323 166.489 68.5497 166.761C68.6671 167.032 68.8319 167.244 69.044 167.398C69.258 167.551 69.508 167.628 69.794 167.628C69.9872 167.628 70.1634 167.592 70.3224 167.52C70.4834 167.446 70.6179 167.342 70.7259 167.207C70.8357 167.073 70.9096 166.913 70.9474 166.727H71.4588C71.4209 166.991 71.3272 167.225 71.1776 167.432C71.0298 167.636 70.8376 167.797 70.6009 167.915C70.366 168.032 70.0971 168.091 69.794 168.091ZM73.5483 165.273V168H73.0426V162.182H73.5483V164.321H73.5938C73.696 164.096 73.8542 163.916 74.0682 163.781C74.2841 163.647 74.5568 163.58 74.8864 163.58C75.1818 163.58 75.4413 163.64 75.6648 163.761C75.8883 163.883 76.0625 164.062 76.1875 164.298C76.3125 164.535 76.375 164.827 76.375 165.173V168H75.8665V165.205C75.8665 164.845 75.7661 164.562 75.5653 164.355C75.3665 164.147 75.0975 164.043 74.7585 164.043C74.5256 164.043 74.3182 164.092 74.1364 164.19C73.9545 164.289 73.8106 164.431 73.7045 164.616C73.6004 164.8 73.5483 165.019 73.5483 165.273ZM79.9709 168.091C79.5637 168.091 79.2114 167.996 78.9141 167.807C78.6167 167.616 78.3866 167.351 78.2237 167.014C78.0627 166.675 77.9822 166.285 77.9822 165.844C77.9822 165.404 78.0627 165.014 78.2237 164.673C78.3866 164.33 78.611 164.062 78.897 163.869C79.1849 163.674 79.5173 163.577 79.8942 163.577C80.1309 163.577 80.3591 163.62 80.5788 163.707C80.7985 163.793 80.9955 163.924 81.1697 164.102C81.3459 164.278 81.4851 164.501 81.5874 164.77C81.6896 165.037 81.7408 165.353 81.7408 165.719V165.969H78.3317V165.523H81.2237C81.2237 165.242 81.1669 164.991 81.0533 164.767C80.9415 164.542 80.7853 164.364 80.5845 164.233C80.3857 164.102 80.1555 164.037 79.8942 164.037C79.6177 164.037 79.3743 164.111 79.1641 164.259C78.9538 164.406 78.7891 164.601 78.6697 164.844C78.5523 165.086 78.4927 165.351 78.4908 165.639V165.906C78.4908 166.253 78.5504 166.556 78.6697 166.815C78.791 167.073 78.9624 167.273 79.1839 167.415C79.4055 167.557 79.6679 167.628 79.9709 167.628C80.1773 167.628 80.3582 167.596 80.5135 167.531C80.6707 167.467 80.8023 167.381 80.9084 167.273C81.0163 167.163 81.0978 167.043 81.1527 166.912L81.6328 167.068C81.5665 167.252 81.4576 167.421 81.3061 167.577C81.1565 167.732 80.969 167.857 80.7436 167.952C80.5201 168.045 80.2625 168.091 79.9709 168.091ZM85.0597 168.091C84.6695 168.091 84.3295 167.993 84.0398 167.798C83.7519 167.603 83.5284 167.336 83.3693 166.997C83.2102 166.658 83.1307 166.272 83.1307 165.838C83.1307 165.401 83.2112 165.011 83.3722 164.67C83.535 164.33 83.7604 164.062 84.0483 163.869C84.3362 163.674 84.6705 163.577 85.0511 163.577C85.3428 163.577 85.607 163.634 85.8438 163.747C86.0805 163.859 86.2756 164.017 86.429 164.222C86.5843 164.424 86.6818 164.661 86.7216 164.932H86.2102C86.1572 164.686 86.0294 164.475 85.8267 164.301C85.6259 164.125 85.3703 164.037 85.0597 164.037C84.7813 164.037 84.535 164.113 84.321 164.264C84.107 164.414 83.9394 164.623 83.8182 164.892C83.6989 165.159 83.6392 165.469 83.6392 165.821C83.6392 166.175 83.6979 166.489 83.8153 166.761C83.9328 167.032 84.0975 167.244 84.3097 167.398C84.5237 167.551 84.7737 167.628 85.0597 167.628C85.2528 167.628 85.429 167.592 85.5881 167.52C85.7491 167.446 85.8835 167.342 85.9915 167.207C86.1013 167.073 86.1752 166.913 86.2131 166.727H86.7244C86.6866 166.991 86.5928 167.225 86.4432 167.432C86.2955 167.636 86.1032 167.797 85.8665 167.915C85.6316 168.032 85.3627 168.091 85.0597 168.091ZM88.7685 166.352L88.7628 165.69H88.8764L90.9219 163.636H91.5611L89.5412 165.659L89.4957 165.668L88.7685 166.352ZM88.3082 168V162.182H88.8139V168H88.3082ZM91.027 168L89.2543 165.759L89.6179 165.409L91.6747 168H91.027ZM93.017 168V163.636H93.5256V168H93.017ZM93.2756 162.886C93.1714 162.886 93.0824 162.851 93.0085 162.781C92.9347 162.709 92.8977 162.623 92.8977 162.523C92.8977 162.422 92.9347 162.337 93.0085 162.267C93.0824 162.195 93.1714 162.159 93.2756 162.159C93.3797 162.159 93.4688 162.195 93.5426 162.267C93.6165 162.337 93.6534 162.422 93.6534 162.523C93.6534 162.623 93.6165 162.709 93.5426 162.781C93.4688 162.851 93.3797 162.886 93.2756 162.886ZM95.8686 165.273V168H95.3629V163.636H95.8544V164.321H95.8999C96.0021 164.098 96.1612 163.919 96.3771 163.784C96.5949 163.648 96.8639 163.58 97.1839 163.58C97.4775 163.58 97.7351 163.641 97.9567 163.764C98.1802 163.885 98.3535 164.064 98.4766 164.301C98.6016 164.538 98.6641 164.829 98.6641 165.173V168H98.1584V165.205C98.1584 164.847 98.058 164.563 97.8572 164.355C97.6584 164.147 97.3913 164.043 97.0561 164.043C96.8269 164.043 96.6233 164.092 96.4453 164.19C96.2673 164.289 96.1262 164.431 96.022 164.616C95.9197 164.8 95.8686 165.019 95.8686 165.273ZM102.161 169.727C101.863 169.727 101.603 169.688 101.379 169.611C101.156 169.535 100.967 169.431 100.814 169.298C100.661 169.166 100.541 169.017 100.456 168.852L100.871 168.58C100.933 168.689 101.017 168.797 101.121 168.903C101.227 169.009 101.364 169.098 101.533 169.168C101.703 169.238 101.912 169.273 102.161 169.273C102.547 169.273 102.858 169.176 103.095 168.983C103.334 168.79 103.453 168.49 103.453 168.082V167.099H103.408C103.349 167.232 103.265 167.365 103.155 167.497C103.045 167.628 102.901 167.737 102.723 167.824C102.547 167.911 102.328 167.955 102.067 167.955C101.718 167.955 101.409 167.868 101.138 167.696C100.869 167.524 100.657 167.277 100.501 166.957C100.348 166.635 100.271 166.252 100.271 165.807C100.271 165.366 100.346 164.977 100.496 164.642C100.647 164.307 100.858 164.045 101.129 163.858C101.4 163.67 101.715 163.577 102.075 163.577C102.342 163.577 102.564 163.624 102.74 163.719C102.916 163.812 103.057 163.927 103.163 164.065C103.271 164.204 103.356 164.338 103.416 164.469H103.467V163.636H103.962V168.114C103.962 168.483 103.883 168.787 103.726 169.026C103.569 169.264 103.355 169.44 103.084 169.554C102.813 169.67 102.505 169.727 102.161 169.727ZM102.126 167.491C102.407 167.491 102.646 167.424 102.845 167.29C103.044 167.153 103.196 166.958 103.303 166.705C103.409 166.451 103.462 166.149 103.462 165.798C103.462 165.457 103.41 165.155 103.305 164.892C103.201 164.627 103.05 164.419 102.851 164.267C102.654 164.114 102.412 164.037 102.126 164.037C101.835 164.037 101.589 164.116 101.388 164.273C101.187 164.43 101.036 164.642 100.933 164.909C100.831 165.174 100.78 165.471 100.78 165.798C100.78 166.132 100.832 166.426 100.936 166.682C101.04 166.936 101.193 167.134 101.393 167.278C101.594 167.42 101.839 167.491 102.126 167.491ZM106.204 168.043C106.092 168.043 105.996 168.003 105.914 167.923C105.835 167.842 105.795 167.745 105.795 167.634C105.795 167.52 105.835 167.423 105.914 167.344C105.996 167.264 106.092 167.224 106.204 167.224C106.317 167.224 106.414 167.264 106.494 167.344C106.573 167.423 106.613 167.52 106.613 167.634C106.613 167.707 106.594 167.776 106.556 167.838C106.52 167.901 106.471 167.951 106.408 167.989C106.348 168.025 106.28 168.043 106.204 168.043ZM108.852 168.043C108.741 168.043 108.644 168.003 108.562 167.923C108.483 167.842 108.443 167.745 108.443 167.634C108.443 167.52 108.483 167.423 108.562 167.344C108.644 167.264 108.741 167.224 108.852 167.224C108.966 167.224 109.062 167.264 109.142 167.344C109.222 167.423 109.261 167.52 109.261 167.634C109.261 167.707 109.242 167.776 109.205 167.838C109.169 167.901 109.119 167.951 109.057 167.989C108.996 168.025 108.928 168.043 108.852 168.043ZM111.501 168.043C111.389 168.043 111.292 168.003 111.211 167.923C111.131 167.842 111.092 167.745 111.092 167.634C111.092 167.52 111.131 167.423 111.211 167.344C111.292 167.264 111.389 167.224 111.501 167.224C111.614 167.224 111.711 167.264 111.79 167.344C111.87 167.423 111.91 167.52 111.91 167.634C111.91 167.707 111.891 167.776 111.853 167.838C111.817 167.901 111.768 167.951 111.705 167.989C111.645 168.025 111.576 168.043 111.501 168.043Z" fill="black"/>
<defs>
<filter id="filter0_d_955_3444" x="0" y="0" width="172" height="195" filterUnits="userSpaceOnUse" color-interpolation-filters="sRGB">
<feFlood flood-opacity="0" result="BackgroundImageFix"/>
<feColorMatrix in="SourceAlpha" type="matrix" values="0 0 0 0 0 0 0 0 0 0 0 0 0 0 0 0 0 0 127 0" result="hardAlpha"/>
<feOffset dy="4"/>
<feGaussianBlur stdDeviation="2"/>
<feComposite in2="hardAlpha" operator="out"/>
<feColorMatrix type="matrix" values="0 0 0 0 0 0 0 0 0 0 0 0 0 0 0 0 0 0 0.25 0"/>
<feBlend mode="normal" in2="BackgroundImageFix" result="effect1_dropShadow_955_3444"/>
<feBlend mode="normal" in="SourceGraphic" in2="effect1_dropShadow_955_3444" result="shape"/>
</filter>
</defs>
</svg>
