<svg width="172" height="195" viewBox="0 0 172 195" fill="none" xmlns="http://www.w3.org/2000/svg">
<g filter="url(#filter0_d_956_3445)">
<rect x="4" width="164" height="187" rx="10" fill="#F4F4FC"/>
</g>
<ellipse cx="84.7931" cy="76.0639" rx="34.9914" ry="37.0043" fill="white"/>
<path opacity="0.5" d="M86.7844 34.707C78.626 34.707 70.6507 37.1752 63.8672 41.7994C57.0836 46.4235 51.7965 52.996 48.6744 60.6858C45.5523 68.3755 44.7354 76.837 46.327 85.0004C47.9187 93.1638 51.8474 100.662 57.6163 106.548C63.3852 112.433 70.7353 116.441 78.737 118.065C86.7387 119.689 95.0327 118.855 102.57 115.67C110.108 112.485 116.55 107.091 121.083 100.171C125.615 93.25 128.034 85.1137 128.034 76.7904C128.034 71.2639 126.967 65.7916 124.894 60.6858C122.821 55.58 119.783 50.9408 115.953 47.033C112.122 43.1252 107.575 40.0253 102.57 37.9104C97.5655 35.7955 92.2015 34.707 86.7844 34.707ZM86.7844 110.457C80.2577 110.457 73.8774 108.483 68.4506 104.783C63.0238 101.084 58.7941 95.8258 56.2964 89.674C53.7987 83.5223 53.1452 76.753 54.4185 70.2223C55.6918 63.6916 58.8348 57.6928 63.4499 52.9844C68.0651 48.2761 73.9451 45.0696 80.3465 43.7706C86.7478 42.4716 93.383 43.1383 99.413 45.6864C105.443 48.2346 110.597 52.5497 114.223 58.0862C117.849 63.6226 119.784 70.1317 119.784 76.7904C119.784 85.7193 116.308 94.2826 110.119 100.596C103.93 106.91 95.5366 110.457 86.7844 110.457Z" fill="#0C538B"/>
<path d="M119.784 76.7904H128.034C128.034 71.2639 126.967 65.7916 124.894 60.6858C122.821 55.58 119.783 50.9408 115.953 47.033C112.122 43.1252 107.575 40.0253 102.57 37.9104C97.5654 35.7955 92.2015 34.707 86.7844 34.707V43.1237C95.5366 43.1237 103.93 46.6707 110.119 52.9844C116.308 59.2982 119.784 67.8614 119.784 76.7904Z" fill="#0C538B"/>
<path d="M90.725 77C90.725 77.5933 90.5359 78.1734 90.1815 78.6667C89.8271 79.1601 89.3234 79.5446 88.7342 79.7716C88.1449 79.9987 87.4964 80.0581 86.8708 79.9424C86.2452 79.8266 85.6706 79.5409 85.2196 79.1213C84.7686 78.7018 84.4614 78.1672 84.337 77.5853C84.2125 77.0033 84.2764 76.4001 84.5205 75.8519C84.7646 75.3038 85.1779 74.8352 85.7083 74.5056C86.2386 74.1759 86.8622 74 87.5 74C88.3553 74 89.1756 74.3161 89.7804 74.8787C90.3852 75.4413 90.725 76.2044 90.725 77ZM105.775 74C105.137 74 104.514 74.1759 103.983 74.5056C103.453 74.8352 103.04 75.3038 102.795 75.8519C102.551 76.4001 102.488 77.0033 102.612 77.5853C102.736 78.1672 103.044 78.7018 103.495 79.1213C103.946 79.5409 104.52 79.8266 105.146 79.9424C105.771 80.0581 106.42 79.9987 107.009 79.7716C107.598 79.5446 108.102 79.1601 108.456 78.6667C108.811 78.1734 109 77.5933 109 77C109 76.2044 108.66 75.4413 108.055 74.8787C107.451 74.3161 106.63 74 105.775 74ZM69.225 74C68.5872 74 67.9636 74.1759 67.4333 74.5056C66.9029 74.8352 66.4896 75.3038 66.2455 75.8519C66.0014 76.4001 65.9375 77.0033 66.062 77.5853C66.1864 78.1672 66.4936 78.7018 66.9446 79.1213C67.3956 79.5409 67.9702 79.8266 68.5958 79.9424C69.2214 80.0581 69.8699 79.9987 70.4592 79.7716C71.0484 79.5446 71.5521 79.1601 71.9065 78.6667C72.2609 78.1734 72.45 77.5933 72.45 77C72.45 76.2044 72.1102 75.4413 71.5054 74.8787C70.9006 74.3161 70.0803 74 69.225 74Z" fill="#0C538B"/>
<path d="M64.9425 144.438H62.4538C62.4084 144.116 62.3156 143.83 62.1754 143.58C62.0353 143.326 61.8554 143.11 61.6357 142.932C61.416 142.754 61.1622 142.617 60.8743 142.523C60.5902 142.428 60.2815 142.381 59.9482 142.381C59.3459 142.381 58.8213 142.53 58.3743 142.83C57.9273 143.125 57.5807 143.557 57.3345 144.125C57.0883 144.689 56.9652 145.375 56.9652 146.182C56.9652 147.011 57.0883 147.708 57.3345 148.273C57.5845 148.837 57.933 149.263 58.38 149.551C58.8269 149.839 59.344 149.983 59.9311 149.983C60.2607 149.983 60.5656 149.939 60.8459 149.852C61.13 149.765 61.3819 149.638 61.6016 149.472C61.8213 149.301 62.0031 149.095 62.147 148.852C62.2947 148.61 62.397 148.333 62.4538 148.023L64.9425 148.034C64.8781 148.568 64.7171 149.083 64.4595 149.58C64.2057 150.072 63.8629 150.513 63.4311 150.903C63.0031 151.29 62.4917 151.597 61.897 151.824C61.3061 152.047 60.6375 152.159 59.8913 152.159C58.8535 152.159 57.9254 151.924 57.1072 151.455C56.2929 150.985 55.6489 150.305 55.1754 149.415C54.7057 148.525 54.4709 147.447 54.4709 146.182C54.4709 144.913 54.7095 143.833 55.1868 142.943C55.6641 142.053 56.3118 141.375 57.13 140.909C57.9482 140.439 58.8686 140.205 59.8913 140.205C60.5656 140.205 61.1906 140.299 61.7663 140.489C62.3459 140.678 62.8591 140.955 63.3061 141.318C63.7531 141.678 64.1167 142.119 64.397 142.642C64.6811 143.165 64.8629 143.763 64.9425 144.438ZM71.1044 152.17C70.2218 152.17 69.4586 151.983 68.8146 151.608C68.1745 151.229 67.6802 150.703 67.3317 150.028C66.9832 149.35 66.8089 148.564 66.8089 147.67C66.8089 146.769 66.9832 145.981 67.3317 145.307C67.6802 144.629 68.1745 144.102 68.8146 143.727C69.4586 143.348 70.2218 143.159 71.1044 143.159C71.987 143.159 72.7483 143.348 73.3885 143.727C74.0324 144.102 74.5286 144.629 74.8771 145.307C75.2256 145.981 75.3999 146.769 75.3999 147.67C75.3999 148.564 75.2256 149.35 74.8771 150.028C74.5286 150.703 74.0324 151.229 73.3885 151.608C72.7483 151.983 71.987 152.17 71.1044 152.17ZM71.1158 150.295C71.5173 150.295 71.8525 150.182 72.1214 149.955C72.3904 149.723 72.593 149.409 72.7294 149.011C72.8696 148.614 72.9396 148.161 72.9396 147.653C72.9396 147.146 72.8696 146.693 72.7294 146.295C72.593 145.898 72.3904 145.583 72.1214 145.352C71.8525 145.121 71.5173 145.006 71.1158 145.006C70.7105 145.006 70.3696 145.121 70.093 145.352C69.8203 145.583 69.6139 145.898 69.4737 146.295C69.3374 146.693 69.2692 147.146 69.2692 147.653C69.2692 148.161 69.3374 148.614 69.4737 149.011C69.6139 149.409 69.8203 149.723 70.093 149.955C70.3696 150.182 70.7105 150.295 71.1158 150.295ZM80.6896 152.142C80.0268 152.142 79.4264 151.972 78.8885 151.631C78.3544 151.286 77.9302 150.78 77.6158 150.114C77.3052 149.443 77.1499 148.621 77.1499 147.648C77.1499 146.648 77.3108 145.816 77.6328 145.153C77.9548 144.487 78.3828 143.989 78.9169 143.659C79.4548 143.326 80.0438 143.159 80.6839 143.159C81.1726 143.159 81.5798 143.242 81.9055 143.409C82.2351 143.572 82.5002 143.777 82.701 144.023C82.9055 144.265 83.0608 144.504 83.1669 144.739H83.2408V140.364H85.6555V152H83.2692V150.602H83.1669C83.0533 150.845 82.8923 151.085 82.6839 151.324C82.4794 151.559 82.2124 151.754 81.8828 151.909C81.5571 152.064 81.1593 152.142 80.6896 152.142ZM81.4567 150.216C81.8468 150.216 82.1764 150.11 82.4453 149.898C82.718 149.682 82.9264 149.381 83.0703 148.994C83.218 148.608 83.2919 148.155 83.2919 147.636C83.2919 147.117 83.2199 146.667 83.076 146.284C82.9321 145.902 82.7237 145.606 82.451 145.398C82.1783 145.189 81.8468 145.085 81.4567 145.085C81.0589 145.085 80.7237 145.193 80.451 145.409C80.1783 145.625 79.9718 145.924 79.8317 146.307C79.6915 146.689 79.6214 147.133 79.6214 147.636C79.6214 148.144 79.6915 148.593 79.8317 148.983C79.9756 149.369 80.1821 149.672 80.451 149.892C80.7237 150.108 81.0589 150.216 81.4567 150.216ZM92.1229 152.17C91.2251 152.17 90.4524 151.989 89.8047 151.625C89.1607 151.258 88.6645 150.739 88.3161 150.068C87.9676 149.394 87.7933 148.597 87.7933 147.676C87.7933 146.778 87.9676 145.991 88.3161 145.312C88.6645 144.634 89.1551 144.106 89.7876 143.727C90.424 143.348 91.1702 143.159 92.0263 143.159C92.602 143.159 93.138 143.252 93.6342 143.438C94.1342 143.619 94.5698 143.894 94.9411 144.261C95.3161 144.629 95.6077 145.091 95.8161 145.648C96.0244 146.201 96.1286 146.848 96.1286 147.591V148.256H88.7592V146.756H93.8501C93.8501 146.407 93.7744 146.098 93.6229 145.83C93.4714 145.561 93.2611 145.35 92.9922 145.199C92.727 145.044 92.4183 144.966 92.0661 144.966C91.6986 144.966 91.3729 145.051 91.0888 145.222C90.8085 145.388 90.5888 145.614 90.4297 145.898C90.2706 146.178 90.1892 146.491 90.1854 146.835V148.261C90.1854 148.693 90.2649 149.066 90.424 149.381C90.5869 149.695 90.8161 149.938 91.1115 150.108C91.407 150.278 91.7573 150.364 92.1626 150.364C92.4316 150.364 92.6778 150.326 92.9013 150.25C93.1248 150.174 93.3161 150.061 93.4751 149.909C93.6342 149.758 93.7554 149.572 93.8388 149.352L96.0774 149.5C95.9638 150.038 95.7308 150.508 95.3786 150.909C95.0301 151.307 94.5793 151.617 94.0263 151.841C93.477 152.061 92.8426 152.17 92.1229 152.17ZM102.646 147.955H104.737L105.788 149.307L106.822 150.511L108.771 152.955H106.475L105.134 151.307L104.447 150.33L102.646 147.955ZM108.947 146.182C108.947 147.451 108.706 148.53 108.225 149.42C107.748 150.311 107.096 150.991 106.271 151.46C105.449 151.926 104.524 152.159 103.498 152.159C102.464 152.159 101.536 151.924 100.714 151.455C99.8918 150.985 99.2422 150.305 98.7649 149.415C98.2876 148.525 98.049 147.447 98.049 146.182C98.049 144.913 98.2876 143.833 98.7649 142.943C99.2422 142.053 99.8918 141.375 100.714 140.909C101.536 140.439 102.464 140.205 103.498 140.205C104.524 140.205 105.449 140.439 106.271 140.909C107.096 141.375 107.748 142.053 108.225 142.943C108.706 143.833 108.947 144.913 108.947 146.182ZM106.452 146.182C106.452 145.36 106.329 144.667 106.083 144.102C105.841 143.538 105.498 143.11 105.055 142.818C104.612 142.527 104.093 142.381 103.498 142.381C102.903 142.381 102.384 142.527 101.941 142.818C101.498 143.11 101.153 143.538 100.907 144.102C100.665 144.667 100.543 145.36 100.543 146.182C100.543 147.004 100.665 147.697 100.907 148.261C101.153 148.826 101.498 149.254 101.941 149.545C102.384 149.837 102.903 149.983 103.498 149.983C104.093 149.983 104.612 149.837 105.055 149.545C105.498 149.254 105.841 148.826 106.083 148.261C106.329 147.697 106.452 147.004 106.452 146.182ZM111.269 152V140.364H113.729V149.972H118.718V152H111.269Z" fill="black"/>
<path d="M65.794 169.091C65.4039 169.091 65.0639 168.993 64.7741 168.798C64.4863 168.603 64.2628 168.336 64.1037 167.997C63.9446 167.658 63.8651 167.272 63.8651 166.838C63.8651 166.401 63.9455 166.011 64.1065 165.67C64.2694 165.33 64.4948 165.062 64.7827 164.869C65.0705 164.674 65.4048 164.577 65.7855 164.577C66.0772 164.577 66.3414 164.634 66.5781 164.747C66.8149 164.859 67.0099 165.017 67.1634 165.222C67.3187 165.424 67.4162 165.661 67.456 165.932H66.9446C66.8916 165.686 66.7637 165.475 66.5611 165.301C66.3603 165.125 66.1046 165.037 65.794 165.037C65.5156 165.037 65.2694 165.113 65.0554 165.264C64.8414 165.414 64.6738 165.623 64.5526 165.892C64.4332 166.159 64.3736 166.469 64.3736 166.821C64.3736 167.175 64.4323 167.489 64.5497 167.761C64.6671 168.032 64.8319 168.244 65.044 168.398C65.258 168.551 65.508 168.628 65.794 168.628C65.9872 168.628 66.1634 168.592 66.3224 168.52C66.4834 168.446 66.6179 168.342 66.7259 168.207C66.8357 168.073 66.9096 167.913 66.9474 167.727H67.4588C67.4209 167.991 67.3272 168.225 67.1776 168.432C67.0298 168.636 66.8376 168.797 66.6009 168.915C66.366 169.032 66.0971 169.091 65.794 169.091ZM69.5483 166.273V169H69.0426V163.182H69.5483V165.321H69.5938C69.696 165.096 69.8542 164.916 70.0682 164.781C70.2841 164.647 70.5568 164.58 70.8864 164.58C71.1818 164.58 71.4413 164.64 71.6648 164.761C71.8883 164.883 72.0625 165.062 72.1875 165.298C72.3125 165.535 72.375 165.827 72.375 166.173V169H71.8665V166.205C71.8665 165.845 71.7661 165.562 71.5653 165.355C71.3665 165.147 71.0975 165.043 70.7585 165.043C70.5256 165.043 70.3182 165.092 70.1364 165.19C69.9545 165.289 69.8106 165.431 69.7045 165.616C69.6004 165.8 69.5483 166.019 69.5483 166.273ZM75.9709 169.091C75.5637 169.091 75.2114 168.996 74.9141 168.807C74.6167 168.616 74.3866 168.351 74.2237 168.014C74.0627 167.675 73.9822 167.285 73.9822 166.844C73.9822 166.404 74.0627 166.014 74.2237 165.673C74.3866 165.33 74.611 165.062 74.897 164.869C75.1849 164.674 75.5173 164.577 75.8942 164.577C76.1309 164.577 76.3591 164.62 76.5788 164.707C76.7985 164.793 76.9955 164.924 77.1697 165.102C77.3459 165.278 77.4851 165.501 77.5874 165.77C77.6896 166.037 77.7408 166.353 77.7408 166.719V166.969H74.3317V166.523H77.2237C77.2237 166.242 77.1669 165.991 77.0533 165.767C76.9415 165.542 76.7853 165.364 76.5845 165.233C76.3857 165.102 76.1555 165.037 75.8942 165.037C75.6177 165.037 75.3743 165.111 75.1641 165.259C74.9538 165.406 74.7891 165.601 74.6697 165.844C74.5523 166.086 74.4927 166.351 74.4908 166.639V166.906C74.4908 167.253 74.5504 167.556 74.6697 167.815C74.791 168.073 74.9624 168.273 75.1839 168.415C75.4055 168.557 75.6679 168.628 75.9709 168.628C76.1773 168.628 76.3582 168.596 76.5135 168.531C76.6707 168.467 76.8023 168.381 76.9084 168.273C77.0163 168.163 77.0978 168.043 77.1527 167.912L77.6328 168.068C77.5665 168.252 77.4576 168.421 77.3061 168.577C77.1565 168.732 76.969 168.857 76.7436 168.952C76.5201 169.045 76.2625 169.091 75.9709 169.091ZM81.0597 169.091C80.6695 169.091 80.3295 168.993 80.0398 168.798C79.7519 168.603 79.5284 168.336 79.3693 167.997C79.2102 167.658 79.1307 167.272 79.1307 166.838C79.1307 166.401 79.2112 166.011 79.3722 165.67C79.535 165.33 79.7604 165.062 80.0483 164.869C80.3362 164.674 80.6705 164.577 81.0511 164.577C81.3428 164.577 81.607 164.634 81.8438 164.747C82.0805 164.859 82.2756 165.017 82.429 165.222C82.5843 165.424 82.6818 165.661 82.7216 165.932H82.2102C82.1572 165.686 82.0294 165.475 81.8267 165.301C81.6259 165.125 81.3703 165.037 81.0597 165.037C80.7813 165.037 80.535 165.113 80.321 165.264C80.107 165.414 79.9394 165.623 79.8182 165.892C79.6989 166.159 79.6392 166.469 79.6392 166.821C79.6392 167.175 79.6979 167.489 79.8153 167.761C79.9328 168.032 80.0975 168.244 80.3097 168.398C80.5237 168.551 80.7737 168.628 81.0597 168.628C81.2528 168.628 81.429 168.592 81.5881 168.52C81.7491 168.446 81.8835 168.342 81.9915 168.207C82.1013 168.073 82.1752 167.913 82.2131 167.727H82.7244C82.6866 167.991 82.5928 168.225 82.4432 168.432C82.2955 168.636 82.1032 168.797 81.8665 168.915C81.6316 169.032 81.3627 169.091 81.0597 169.091ZM84.7685 167.352L84.7628 166.69H84.8764L86.9219 164.636H87.5611L85.5412 166.659L85.4957 166.668L84.7685 167.352ZM84.3082 169V163.182H84.8139V169H84.3082ZM87.027 169L85.2543 166.759L85.6179 166.409L87.6747 169H87.027ZM89.017 169V164.636H89.5256V169H89.017ZM89.2756 163.886C89.1714 163.886 89.0824 163.851 89.0085 163.781C88.9347 163.709 88.8977 163.623 88.8977 163.523C88.8977 163.422 88.9347 163.337 89.0085 163.267C89.0824 163.195 89.1714 163.159 89.2756 163.159C89.3797 163.159 89.4688 163.195 89.5426 163.267C89.6165 163.337 89.6534 163.422 89.6534 163.523C89.6534 163.623 89.6165 163.709 89.5426 163.781C89.4688 163.851 89.3797 163.886 89.2756 163.886ZM91.8686 166.273V169H91.3629V164.636H91.8544V165.321H91.8999C92.0021 165.098 92.1612 164.919 92.3771 164.784C92.5949 164.648 92.8639 164.58 93.1839 164.58C93.4775 164.58 93.7351 164.641 93.9567 164.764C94.1802 164.885 94.3535 165.064 94.4766 165.301C94.6016 165.538 94.6641 165.829 94.6641 166.173V169H94.1584V166.205C94.1584 165.847 94.058 165.563 93.8572 165.355C93.6584 165.147 93.3913 165.043 93.0561 165.043C92.8269 165.043 92.6233 165.092 92.4453 165.19C92.2673 165.289 92.1262 165.431 92.022 165.616C91.9197 165.8 91.8686 166.019 91.8686 166.273ZM98.1605 170.727C97.8632 170.727 97.6027 170.688 97.3793 170.611C97.1558 170.535 96.9673 170.431 96.8139 170.298C96.6605 170.166 96.5412 170.017 96.456 169.852L96.8707 169.58C96.9332 169.689 97.0166 169.797 97.1207 169.903C97.2268 170.009 97.3641 170.098 97.5327 170.168C97.7031 170.238 97.9124 170.273 98.1605 170.273C98.5469 170.273 98.8584 170.176 99.0952 169.983C99.3338 169.79 99.4531 169.49 99.4531 169.082V168.099H99.4077C99.349 168.232 99.2647 168.365 99.1548 168.497C99.045 168.628 98.901 168.737 98.723 168.824C98.5469 168.911 98.3281 168.955 98.0668 168.955C97.7183 168.955 97.4086 168.868 97.1378 168.696C96.8688 168.524 96.6567 168.277 96.5014 167.957C96.348 167.635 96.2713 167.252 96.2713 166.807C96.2713 166.366 96.3461 165.977 96.4957 165.642C96.6473 165.307 96.8584 165.045 97.1293 164.858C97.4001 164.67 97.7154 164.577 98.0753 164.577C98.3423 164.577 98.5639 164.624 98.7401 164.719C98.9162 164.812 99.0573 164.927 99.1634 165.065C99.2713 165.204 99.3556 165.338 99.4162 165.469H99.4673V164.636H99.9616V169.114C99.9616 169.483 99.883 169.787 99.7259 170.026C99.5687 170.264 99.3546 170.44 99.0838 170.554C98.813 170.67 98.5052 170.727 98.1605 170.727ZM98.1264 168.491C98.4067 168.491 98.6463 168.424 98.8452 168.29C99.044 168.153 99.1965 167.958 99.3026 167.705C99.4086 167.451 99.4616 167.149 99.4616 166.798C99.4616 166.457 99.4096 166.155 99.3054 165.892C99.2012 165.627 99.0497 165.419 98.8509 165.267C98.6539 165.114 98.4124 165.037 98.1264 165.037C97.8348 165.037 97.5885 165.116 97.3878 165.273C97.187 165.43 97.0355 165.642 96.9332 165.909C96.831 166.174 96.7798 166.471 96.7798 166.798C96.7798 167.132 96.8319 167.426 96.9361 167.682C97.0402 167.936 97.1927 168.134 97.3935 168.278C97.5942 168.42 97.8385 168.491 98.1264 168.491ZM102.204 169.043C102.092 169.043 101.996 169.003 101.914 168.923C101.835 168.842 101.795 168.745 101.795 168.634C101.795 168.52 101.835 168.423 101.914 168.344C101.996 168.264 102.092 168.224 102.204 168.224C102.317 168.224 102.414 168.264 102.494 168.344C102.573 168.423 102.613 168.52 102.613 168.634C102.613 168.707 102.594 168.776 102.556 168.838C102.52 168.901 102.471 168.951 102.408 168.989C102.348 169.025 102.28 169.043 102.204 169.043ZM104.852 169.043C104.741 169.043 104.644 169.003 104.562 168.923C104.483 168.842 104.443 168.745 104.443 168.634C104.443 168.52 104.483 168.423 104.562 168.344C104.644 168.264 104.741 168.224 104.852 168.224C104.966 168.224 105.062 168.264 105.142 168.344C105.222 168.423 105.261 168.52 105.261 168.634C105.261 168.707 105.242 168.776 105.205 168.838C105.169 168.901 105.119 168.951 105.057 168.989C104.996 169.025 104.928 169.043 104.852 169.043ZM107.501 169.043C107.389 169.043 107.292 169.003 107.211 168.923C107.131 168.842 107.092 168.745 107.092 168.634C107.092 168.52 107.131 168.423 107.211 168.344C107.292 168.264 107.389 168.224 107.501 168.224C107.614 168.224 107.711 168.264 107.79 168.344C107.87 168.423 107.91 168.52 107.91 168.634C107.91 168.707 107.891 168.776 107.853 168.838C107.817 168.901 107.768 168.951 107.705 168.989C107.645 169.025 107.576 169.043 107.501 169.043Z" fill="black"/>
<defs>
<filter id="filter0_d_956_3445" x="0" y="0" width="172" height="195" filterUnits="userSpaceOnUse" color-interpolation-filters="sRGB">
<feFlood flood-opacity="0" result="BackgroundImageFix"/>
<feColorMatrix in="SourceAlpha" type="matrix" values="0 0 0 0 0 0 0 0 0 0 0 0 0 0 0 0 0 0 127 0" result="hardAlpha"/>
<feOffset dy="4"/>
<feGaussianBlur stdDeviation="2"/>
<feComposite in2="hardAlpha" operator="out"/>
<feColorMatrix type="matrix" values="0 0 0 0 0 0 0 0 0 0 0 0 0 0 0 0 0 0 0.25 0"/>
<feBlend mode="normal" in2="BackgroundImageFix" result="effect1_dropShadow_956_3445"/>
<feBlend mode="normal" in="SourceGraphic" in2="effect1_dropShadow_956_3445" result="shape"/>
</filter>
</defs>
</svg>
