<svg width="172" height="195" viewBox="0 0 172 195" fill="none" xmlns="http://www.w3.org/2000/svg">
<g filter="url(#filter0_d_954_3400)">
<rect x="4" width="164" height="187" rx="10" fill="#F4F4FC"/>
</g>
<ellipse cx="86.7931" cy="70.0639" rx="34.9914" ry="37.0043" fill="white"/>
<path opacity="0.5" d="M88.7844 28.707C80.626 28.707 72.6507 31.1752 65.8672 35.7994C59.0836 40.4235 53.7965 46.996 50.6744 54.6858C47.5523 62.3755 46.7354 70.837 48.327 79.0004C49.9187 87.1638 53.8474 94.6623 59.6163 100.548C65.3852 106.433 72.7353 110.441 80.737 112.065C88.7387 113.689 97.0327 112.855 104.57 109.67C112.108 106.485 118.55 101.091 123.083 94.1706C127.615 87.25 130.034 79.1137 130.034 70.7904C130.034 65.2639 128.967 59.7916 126.894 54.6858C124.821 49.58 121.783 44.9408 117.953 41.033C114.122 37.1252 109.575 34.0253 104.57 31.9104C99.5655 29.7955 94.2015 28.707 88.7844 28.707ZM88.7844 104.457C82.2577 104.457 75.8774 102.483 70.4506 98.7832C65.0238 95.0838 60.7941 89.8258 58.2964 83.674C55.7987 77.5223 55.1452 70.753 56.4185 64.2223C57.6918 57.6916 60.8348 51.6928 65.4499 46.9844C70.0651 42.2761 75.9451 39.0696 82.3465 37.7706C88.7478 36.4716 95.383 37.1383 101.413 39.6864C107.443 42.2346 112.597 46.5497 116.223 52.0862C119.849 57.6226 121.784 64.1317 121.784 70.7904C121.784 79.7193 118.308 88.2826 112.119 94.5963C105.93 100.91 97.5366 104.457 88.7844 104.457Z" fill="#C10000"/>
<path d="M121.784 70.7904H130.034C130.034 65.2639 128.967 59.7916 126.894 54.6858C124.821 49.58 121.783 44.9408 117.953 41.033C114.122 37.1252 109.575 34.0253 104.57 31.9104C99.5654 29.7955 94.2015 28.707 88.7844 28.707V37.1237C97.5366 37.1237 105.93 40.6707 112.119 46.9844C118.308 53.2982 121.784 61.8614 121.784 70.7904Z" fill="#C10000"/>
<path d="M104.906 82.0078C105.338 82.4393 105.58 83.0245 105.58 83.6347C105.58 84.245 105.338 84.8302 104.906 85.2617C104.475 85.6932 103.89 85.9356 103.279 85.9356C102.669 85.9356 102.084 85.6932 101.652 85.2617L89.5 73.1055L77.3438 85.2579C76.9123 85.6894 76.3271 85.9318 75.7169 85.9318C75.1066 85.9318 74.5214 85.6894 74.0899 85.2579C73.6584 84.8264 73.416 84.2411 73.416 83.6309C73.416 83.0207 73.6584 82.4354 74.0899 82.0039L86.2461 69.8516L74.0937 57.6954C73.6623 57.2639 73.4198 56.6786 73.4198 56.0684C73.4198 55.4582 73.6623 54.8729 74.0937 54.4414C74.5252 54.01 75.1105 53.7675 75.7207 53.7675C76.3309 53.7675 76.9162 54.01 77.3477 54.4414L89.5 66.5977L101.656 54.4395C102.088 54.008 102.673 53.7656 103.283 53.7656C103.893 53.7656 104.479 54.008 104.91 54.4395C105.342 54.871 105.584 55.4563 105.584 56.0665C105.584 56.6767 105.342 57.2619 104.91 57.6934L92.7539 69.8516L104.906 82.0078Z" fill="#C10000"/>
<path d="M29.0185 140.364V152H26.5582V140.364H29.0185ZM38.7585 145.761L36.5426 145.898C36.5047 145.708 36.4233 145.538 36.2983 145.386C36.1733 145.231 36.0085 145.108 35.804 145.017C35.6032 144.922 35.3627 144.875 35.0824 144.875C34.7074 144.875 34.3911 144.955 34.1335 145.114C33.8759 145.269 33.7472 145.477 33.7472 145.739C33.7472 145.947 33.8305 146.123 33.9972 146.267C34.1638 146.411 34.4498 146.527 34.8551 146.614L36.4347 146.932C37.2831 147.106 37.9157 147.386 38.3324 147.773C38.7491 148.159 38.9574 148.667 38.9574 149.295C38.9574 149.867 38.7888 150.369 38.4517 150.801C38.1184 151.233 37.66 151.57 37.0767 151.812C36.4972 152.051 35.8286 152.17 35.071 152.17C33.9157 152.17 32.9953 151.93 32.3097 151.449C31.6278 150.964 31.2282 150.305 31.1108 149.472L33.4915 149.347C33.5634 149.699 33.7377 149.968 34.0142 150.153C34.2907 150.335 34.6449 150.426 35.0767 150.426C35.5009 150.426 35.8419 150.345 36.0994 150.182C36.3608 150.015 36.4934 149.801 36.4972 149.54C36.4934 149.32 36.4006 149.14 36.2188 149C36.0369 148.856 35.7566 148.746 35.3778 148.67L33.8665 148.369C33.0142 148.199 32.3797 147.903 31.9631 147.483C31.5502 147.062 31.3438 146.527 31.3438 145.875C31.3438 145.314 31.4953 144.831 31.7983 144.426C32.1051 144.021 32.535 143.708 33.0881 143.489C33.6449 143.269 34.2964 143.159 35.0426 143.159C36.1449 143.159 37.0123 143.392 37.6449 143.858C38.2813 144.324 38.6525 144.958 38.7585 145.761ZM48.2429 145.761L46.027 145.898C45.9891 145.708 45.9077 145.538 45.7827 145.386C45.6577 145.231 45.4929 145.108 45.2884 145.017C45.0876 144.922 44.8471 144.875 44.5668 144.875C44.1918 144.875 43.8755 144.955 43.6179 145.114C43.3603 145.269 43.2315 145.477 43.2315 145.739C43.2315 145.947 43.3149 146.123 43.4815 146.267C43.6482 146.411 43.9342 146.527 44.3395 146.614L45.919 146.932C46.7675 147.106 47.4001 147.386 47.8168 147.773C48.2334 148.159 48.4418 148.667 48.4418 149.295C48.4418 149.867 48.2732 150.369 47.9361 150.801C47.6027 151.233 47.1444 151.57 46.5611 151.812C45.9815 152.051 45.313 152.17 44.5554 152.17C43.4001 152.17 42.4796 151.93 41.794 151.449C41.1122 150.964 40.7126 150.305 40.5952 149.472L42.9759 149.347C43.0478 149.699 43.2221 149.968 43.4986 150.153C43.7751 150.335 44.1293 150.426 44.5611 150.426C44.9853 150.426 45.3262 150.345 45.5838 150.182C45.8452 150.015 45.9777 149.801 45.9815 149.54C45.9777 149.32 45.8849 149.14 45.7031 149C45.5213 148.856 45.241 148.746 44.8622 148.67L43.3509 148.369C42.4986 148.199 41.8641 147.903 41.4474 147.483C41.0346 147.062 40.8281 146.527 40.8281 145.875C40.8281 145.314 40.9796 144.831 41.2827 144.426C41.5895 144.021 42.0194 143.708 42.5724 143.489C43.1293 143.269 43.7808 143.159 44.527 143.159C45.6293 143.159 46.4967 143.392 47.1293 143.858C47.7656 144.324 48.1368 144.958 48.2429 145.761ZM56.0625 148.284V143.273H58.483V152H56.1591V150.415H56.0682C55.8712 150.926 55.5436 151.337 55.0852 151.648C54.6307 151.958 54.0758 152.114 53.4205 152.114C52.8371 152.114 52.3239 151.981 51.8807 151.716C51.4375 151.451 51.0909 151.074 50.8409 150.585C50.5947 150.097 50.4697 149.511 50.4659 148.83V143.273H52.8864V148.398C52.8902 148.913 53.0284 149.32 53.3011 149.619C53.5739 149.919 53.9394 150.068 54.3977 150.068C54.6894 150.068 54.9621 150.002 55.2159 149.869C55.4697 149.733 55.6742 149.532 55.8295 149.267C55.9886 149.002 56.0663 148.674 56.0625 148.284ZM64.8963 152.17C63.9986 152.17 63.2259 151.989 62.5781 151.625C61.9342 151.258 61.438 150.739 61.0895 150.068C60.741 149.394 60.5668 148.597 60.5668 147.676C60.5668 146.778 60.741 145.991 61.0895 145.312C61.438 144.634 61.9285 144.106 62.5611 143.727C63.1974 143.348 63.9437 143.159 64.7997 143.159C65.3755 143.159 65.9115 143.252 66.4077 143.438C66.9077 143.619 67.3433 143.894 67.7145 144.261C68.0895 144.629 68.3812 145.091 68.5895 145.648C68.7978 146.201 68.902 146.848 68.902 147.591V148.256H61.5327V146.756H66.6236C66.6236 146.407 66.5478 146.098 66.3963 145.83C66.2448 145.561 66.0346 145.35 65.7656 145.199C65.5005 145.044 65.1918 144.966 64.8395 144.966C64.4721 144.966 64.1463 145.051 63.8622 145.222C63.5819 145.388 63.3622 145.614 63.2031 145.898C63.044 146.178 62.9626 146.491 62.9588 146.835V148.261C62.9588 148.693 63.0384 149.066 63.1974 149.381C63.3603 149.695 63.5895 149.938 63.8849 150.108C64.1804 150.278 64.5308 150.364 64.9361 150.364C65.205 150.364 65.4512 150.326 65.6747 150.25C65.8982 150.174 66.0895 150.061 66.2486 149.909C66.4077 149.758 66.5289 149.572 66.6122 149.352L68.8509 149.5C68.7372 150.038 68.5043 150.508 68.152 150.909C67.8035 151.307 67.3527 151.617 66.7997 151.841C66.2505 152.061 65.616 152.17 64.8963 152.17ZM79.8267 143.273V145.091H74.571V143.273H79.8267ZM75.7642 141.182H78.1847V149.318C78.1847 149.542 78.2188 149.716 78.2869 149.841C78.3551 149.962 78.4498 150.047 78.571 150.097C78.696 150.146 78.84 150.17 79.0028 150.17C79.1165 150.17 79.2301 150.161 79.3438 150.142C79.4574 150.119 79.5445 150.102 79.6051 150.091L79.9858 151.892C79.8646 151.93 79.6941 151.973 79.4744 152.023C79.2547 152.076 78.9877 152.108 78.6733 152.119C78.09 152.142 77.5786 152.064 77.1392 151.886C76.7036 151.708 76.3646 151.432 76.1222 151.057C75.8797 150.682 75.7604 150.208 75.7642 149.636V141.182ZM85.7869 152.17C84.8892 152.17 84.1165 151.989 83.4688 151.625C82.8248 151.258 82.3286 150.739 81.9801 150.068C81.6316 149.394 81.4574 148.597 81.4574 147.676C81.4574 146.778 81.6316 145.991 81.9801 145.312C82.3286 144.634 82.8191 144.106 83.4517 143.727C84.0881 143.348 84.8343 143.159 85.6903 143.159C86.2661 143.159 86.8021 143.252 87.2983 143.438C87.7983 143.619 88.2339 143.894 88.6051 144.261C88.9801 144.629 89.2718 145.091 89.4801 145.648C89.6884 146.201 89.7926 146.848 89.7926 147.591V148.256H82.4233V146.756H87.5142C87.5142 146.407 87.4384 146.098 87.2869 145.83C87.1354 145.561 86.9252 145.35 86.6562 145.199C86.3911 145.044 86.0824 144.966 85.7301 144.966C85.3627 144.966 85.0369 145.051 84.7528 145.222C84.4725 145.388 84.2528 145.614 84.0938 145.898C83.9347 146.178 83.8532 146.491 83.8494 146.835V148.261C83.8494 148.693 83.929 149.066 84.0881 149.381C84.2509 149.695 84.4801 149.938 84.7756 150.108C85.071 150.278 85.4214 150.364 85.8267 150.364C86.0956 150.364 86.3419 150.326 86.5653 150.25C86.7888 150.174 86.9801 150.061 87.1392 149.909C87.2983 149.758 87.4195 149.572 87.5028 149.352L89.7415 149.5C89.6278 150.038 89.3949 150.508 89.0426 150.909C88.6941 151.307 88.2434 151.617 87.6903 151.841C87.1411 152.061 86.5066 152.17 85.7869 152.17ZM91.8722 152V143.273H94.179V144.812H94.2812C94.4631 144.301 94.7661 143.898 95.1903 143.602C95.6146 143.307 96.1222 143.159 96.7131 143.159C97.3116 143.159 97.821 143.309 98.2415 143.608C98.6619 143.903 98.9422 144.305 99.0824 144.812H99.1733C99.3513 144.312 99.6733 143.913 100.139 143.614C100.609 143.311 101.164 143.159 101.804 143.159C102.618 143.159 103.279 143.419 103.787 143.938C104.298 144.453 104.554 145.184 104.554 146.131V152H102.139V146.608C102.139 146.123 102.01 145.759 101.753 145.517C101.495 145.275 101.173 145.153 100.787 145.153C100.348 145.153 100.005 145.294 99.7585 145.574C99.5123 145.85 99.3892 146.216 99.3892 146.67V152H97.0426V146.557C97.0426 146.129 96.9195 145.788 96.6733 145.534C96.4309 145.28 96.1108 145.153 95.7131 145.153C95.4441 145.153 95.2017 145.222 94.9858 145.358C94.7737 145.491 94.6051 145.678 94.4801 145.92C94.3551 146.159 94.2926 146.439 94.2926 146.761V152H91.8722ZM106.966 155.273V143.273H109.352V144.739H109.46C109.566 144.504 109.72 144.265 109.92 144.023C110.125 143.777 110.39 143.572 110.716 143.409C111.045 143.242 111.455 143.159 111.943 143.159C112.58 143.159 113.167 143.326 113.705 143.659C114.242 143.989 114.672 144.487 114.994 145.153C115.316 145.816 115.477 146.648 115.477 147.648C115.477 148.621 115.32 149.443 115.006 150.114C114.695 150.78 114.271 151.286 113.733 151.631C113.199 151.972 112.6 152.142 111.938 152.142C111.468 152.142 111.068 152.064 110.739 151.909C110.413 151.754 110.146 151.559 109.938 151.324C109.729 151.085 109.57 150.845 109.46 150.602H109.386V155.273H106.966ZM109.335 147.636C109.335 148.155 109.407 148.608 109.551 148.994C109.695 149.381 109.903 149.682 110.176 149.898C110.449 150.11 110.78 150.216 111.17 150.216C111.564 150.216 111.898 150.108 112.17 149.892C112.443 149.672 112.65 149.369 112.79 148.983C112.934 148.593 113.006 148.144 113.006 147.636C113.006 147.133 112.936 146.689 112.795 146.307C112.655 145.924 112.449 145.625 112.176 145.409C111.903 145.193 111.568 145.085 111.17 145.085C110.777 145.085 110.443 145.189 110.17 145.398C109.902 145.606 109.695 145.902 109.551 146.284C109.407 146.667 109.335 147.117 109.335 147.636ZM120.011 140.364V152H117.591V140.364H120.011ZM124.939 152.165C124.382 152.165 123.886 152.068 123.45 151.875C123.015 151.678 122.67 151.388 122.416 151.006C122.166 150.619 122.041 150.138 122.041 149.562C122.041 149.078 122.13 148.67 122.308 148.341C122.486 148.011 122.729 147.746 123.036 147.545C123.342 147.345 123.691 147.193 124.081 147.091C124.475 146.989 124.888 146.917 125.32 146.875C125.827 146.822 126.236 146.773 126.547 146.727C126.857 146.678 127.083 146.606 127.223 146.511C127.363 146.417 127.433 146.277 127.433 146.091V146.057C127.433 145.697 127.32 145.419 127.092 145.222C126.869 145.025 126.551 144.926 126.138 144.926C125.702 144.926 125.356 145.023 125.098 145.216C124.84 145.405 124.67 145.644 124.587 145.932L122.348 145.75C122.462 145.22 122.685 144.761 123.018 144.375C123.352 143.985 123.782 143.686 124.308 143.477C124.839 143.265 125.452 143.159 126.149 143.159C126.634 143.159 127.098 143.216 127.541 143.33C127.988 143.443 128.384 143.619 128.729 143.858C129.077 144.097 129.352 144.403 129.553 144.778C129.753 145.15 129.854 145.595 129.854 146.114V152H127.558V150.79H127.49C127.35 151.062 127.162 151.303 126.928 151.511C126.693 151.716 126.411 151.877 126.081 151.994C125.751 152.108 125.371 152.165 124.939 152.165ZM125.632 150.494C125.988 150.494 126.303 150.424 126.575 150.284C126.848 150.14 127.062 149.947 127.217 149.705C127.373 149.462 127.45 149.187 127.45 148.881V147.955C127.375 148.004 127.27 148.049 127.138 148.091C127.009 148.129 126.863 148.165 126.7 148.199C126.537 148.229 126.375 148.258 126.212 148.284C126.049 148.307 125.901 148.328 125.768 148.347C125.484 148.388 125.236 148.455 125.024 148.545C124.812 148.636 124.647 148.759 124.53 148.915C124.412 149.066 124.354 149.256 124.354 149.483C124.354 149.812 124.473 150.064 124.712 150.239C124.954 150.409 125.261 150.494 125.632 150.494ZM136.874 143.273V145.091H131.618V143.273H136.874ZM132.811 141.182H135.232V149.318C135.232 149.542 135.266 149.716 135.334 149.841C135.402 149.962 135.497 150.047 135.618 150.097C135.743 150.146 135.887 150.17 136.05 150.17C136.163 150.17 136.277 150.161 136.391 150.142C136.504 150.119 136.591 150.102 136.652 150.091L137.033 151.892C136.911 151.93 136.741 151.973 136.521 152.023C136.302 152.076 136.035 152.108 135.72 152.119C135.137 152.142 134.625 152.064 134.186 151.886C133.75 151.708 133.411 151.432 133.169 151.057C132.927 150.682 132.807 150.208 132.811 149.636V141.182ZM142.834 152.17C141.936 152.17 141.163 151.989 140.516 151.625C139.872 151.258 139.375 150.739 139.027 150.068C138.679 149.394 138.504 148.597 138.504 147.676C138.504 146.778 138.679 145.991 139.027 145.312C139.375 144.634 139.866 144.106 140.499 143.727C141.135 143.348 141.881 143.159 142.737 143.159C143.313 143.159 143.849 143.252 144.345 143.438C144.845 143.619 145.281 143.894 145.652 144.261C146.027 144.629 146.319 145.091 146.527 145.648C146.735 146.201 146.839 146.848 146.839 147.591V148.256H139.47V146.756H144.561C144.561 146.407 144.485 146.098 144.334 145.83C144.182 145.561 143.972 145.35 143.703 145.199C143.438 145.044 143.129 144.966 142.777 144.966C142.41 144.966 142.084 145.051 141.8 145.222C141.519 145.388 141.3 145.614 141.141 145.898C140.982 146.178 140.9 146.491 140.896 146.835V148.261C140.896 148.693 140.976 149.066 141.135 149.381C141.298 149.695 141.527 149.938 141.822 150.108C142.118 150.278 142.468 150.364 142.874 150.364C143.143 150.364 143.389 150.326 143.612 150.25C143.836 150.174 144.027 150.061 144.186 149.909C144.345 149.758 144.466 149.572 144.55 149.352L146.788 149.5C146.675 150.038 146.442 150.508 146.089 150.909C145.741 151.307 145.29 151.617 144.737 151.841C144.188 152.061 143.554 152.17 142.834 152.17Z" fill="black"/>
<defs>
<filter id="filter0_d_954_3400" x="0" y="0" width="172" height="195" filterUnits="userSpaceOnUse" color-interpolation-filters="sRGB">
<feFlood flood-opacity="0" result="BackgroundImageFix"/>
<feColorMatrix in="SourceAlpha" type="matrix" values="0 0 0 0 0 0 0 0 0 0 0 0 0 0 0 0 0 0 127 0" result="hardAlpha"/>
<feOffset dy="4"/>
<feGaussianBlur stdDeviation="2"/>
<feComposite in2="hardAlpha" operator="out"/>
<feColorMatrix type="matrix" values="0 0 0 0 0 0 0 0 0 0 0 0 0 0 0 0 0 0 0.25 0"/>
<feBlend mode="normal" in2="BackgroundImageFix" result="effect1_dropShadow_954_3400"/>
<feBlend mode="normal" in="SourceGraphic" in2="effect1_dropShadow_954_3400" result="shape"/>
</filter>
</defs>
</svg>
