<svg width="172" height="195" viewBox="0 0 172 195" fill="none" xmlns="http://www.w3.org/2000/svg">
<g filter="url(#filter0_d_954_3402)">
<rect x="4" width="164" height="187" rx="10" fill="#F4F4FC"/>
</g>
<ellipse cx="85.7931" cy="76.0639" rx="34.9914" ry="37.0043" fill="white"/>
<path opacity="0.5" d="M87.7844 34.707C79.626 34.707 71.6507 37.1752 64.8672 41.7994C58.0836 46.4235 52.7965 52.996 49.6744 60.6858C46.5523 68.3755 45.7354 76.837 47.327 85.0004C48.9187 93.1638 52.8474 100.662 58.6163 106.548C64.3852 112.433 71.7353 116.441 79.737 118.065C87.7387 119.689 96.0327 118.855 103.57 115.67C111.108 112.485 117.55 107.091 122.083 100.171C126.615 93.25 129.034 85.1137 129.034 76.7904C129.034 71.2639 127.967 65.7916 125.894 60.6858C123.821 55.58 120.783 50.9408 116.953 47.033C113.122 43.1252 108.575 40.0253 103.57 37.9104C98.5655 35.7955 93.2015 34.707 87.7844 34.707ZM87.7844 110.457C81.2577 110.457 74.8774 108.483 69.4506 104.783C64.0238 101.084 59.7941 95.8258 57.2964 89.674C54.7987 83.5223 54.1452 76.753 55.4185 70.2223C56.6918 63.6916 59.8348 57.6928 64.4499 52.9844C69.0651 48.2761 74.9451 45.0696 81.3465 43.7706C87.7478 42.4716 94.383 43.1383 100.413 45.6864C106.443 48.2346 111.597 52.5497 115.223 58.0862C118.849 63.6226 120.784 70.1317 120.784 76.7904C120.784 85.7193 117.308 94.2826 111.119 100.596C104.93 106.91 96.5366 110.457 87.7844 110.457Z" fill="#C10000"/>
<path d="M120.784 76.7904H129.034C129.034 71.2639 127.967 65.7916 125.894 60.6858C123.821 55.58 120.783 50.9408 116.953 47.033C113.122 43.1252 108.575 40.0253 103.57 37.9104C98.5654 35.7955 93.2015 34.707 87.7844 34.707V43.1237C96.5366 43.1237 104.93 46.6707 111.119 52.9844C117.308 59.2982 120.784 67.8614 120.784 76.7904Z" fill="#C10000"/>
<path d="M103.906 88.0078C104.338 88.4393 104.58 89.0245 104.58 89.6347C104.58 90.245 104.338 90.8302 103.906 91.2617C103.475 91.6932 102.89 91.9356 102.279 91.9356C101.669 91.9356 101.084 91.6932 100.652 91.2617L88.5 79.1055L76.3438 91.2579C75.9123 91.6894 75.3271 91.9318 74.7169 91.9318C74.1066 91.9318 73.5214 91.6894 73.0899 91.2579C72.6584 90.8264 72.416 90.2411 72.416 89.6309C72.416 89.0207 72.6584 88.4354 73.0899 88.0039L85.2461 75.8516L73.0937 63.6954C72.6623 63.2639 72.4198 62.6786 72.4198 62.0684C72.4198 61.4582 72.6623 60.8729 73.0937 60.4414C73.5252 60.01 74.1105 59.7675 74.7207 59.7675C75.3309 59.7675 75.9162 60.01 76.3477 60.4414L88.5 72.5977L100.656 60.4395C101.088 60.008 101.673 59.7656 102.283 59.7656C102.893 59.7656 103.479 60.008 103.91 60.4395C104.342 60.871 104.584 61.4563 104.584 62.0665C104.584 62.6767 104.342 63.2619 103.91 63.6934L91.7539 75.8516L103.906 88.0078Z" fill="#C10000"/>
<path d="M31.7692 143.71C31.7237 143.252 31.5286 142.896 31.1839 142.642C30.8393 142.388 30.3714 142.261 29.7805 142.261C29.379 142.261 29.04 142.318 28.7635 142.432C28.487 142.542 28.2749 142.695 28.1271 142.892C27.9832 143.089 27.9112 143.312 27.9112 143.562C27.9036 143.771 27.9472 143.953 28.0419 144.108C28.1404 144.263 28.2749 144.398 28.4453 144.511C28.6158 144.621 28.8127 144.718 29.0362 144.801C29.2597 144.881 29.4983 144.949 29.7521 145.006L30.7976 145.256C31.3052 145.369 31.7711 145.521 32.1953 145.71C32.6196 145.9 32.987 146.133 33.2976 146.409C33.6082 146.686 33.8487 147.011 34.0192 147.386C34.1934 147.761 34.2824 148.191 34.2862 148.676C34.2824 149.388 34.1006 150.006 33.7408 150.528C33.3847 151.047 32.8696 151.451 32.1953 151.739C31.5249 152.023 30.7161 152.165 29.7692 152.165C28.8298 152.165 28.0116 152.021 27.3146 151.733C26.6214 151.445 26.0798 151.019 25.6896 150.455C25.3033 149.886 25.1006 149.184 25.0817 148.347H27.4624C27.4889 148.737 27.6006 149.062 27.7976 149.324C27.9983 149.581 28.2654 149.777 28.5987 149.909C28.9358 150.038 29.3165 150.102 29.7408 150.102C30.1574 150.102 30.5192 150.042 30.826 149.92C31.1366 149.799 31.3771 149.631 31.5476 149.415C31.718 149.199 31.8033 148.951 31.8033 148.67C31.8033 148.409 31.7256 148.189 31.5703 148.011C31.4188 147.833 31.1953 147.682 30.8999 147.557C30.6082 147.432 30.2502 147.318 29.826 147.216L28.5589 146.898C27.5779 146.659 26.8033 146.286 26.2351 145.778C25.6669 145.271 25.3847 144.587 25.3885 143.727C25.3847 143.023 25.5722 142.407 25.951 141.881C26.3336 141.354 26.8582 140.943 27.5249 140.648C28.1915 140.352 28.9491 140.205 29.7976 140.205C30.6612 140.205 31.415 140.352 32.0589 140.648C32.7067 140.943 33.2105 141.354 33.5703 141.881C33.9302 142.407 34.1158 143.017 34.1271 143.71H31.7692ZM40.3729 152.17C39.4751 152.17 38.7024 151.989 38.0547 151.625C37.4107 151.258 36.9145 150.739 36.5661 150.068C36.2176 149.394 36.0433 148.597 36.0433 147.676C36.0433 146.778 36.2176 145.991 36.5661 145.312C36.9145 144.634 37.4051 144.106 38.0376 143.727C38.674 143.348 39.4202 143.159 40.2763 143.159C40.852 143.159 41.388 143.252 41.8842 143.438C42.3842 143.619 42.8198 143.894 43.1911 144.261C43.5661 144.629 43.8577 145.091 44.0661 145.648C44.2744 146.201 44.3786 146.848 44.3786 147.591V148.256H37.0092V146.756H42.1001C42.1001 146.407 42.0244 146.098 41.8729 145.83C41.7214 145.561 41.5111 145.35 41.2422 145.199C40.977 145.044 40.6683 144.966 40.3161 144.966C39.9486 144.966 39.6229 145.051 39.3388 145.222C39.0585 145.388 38.8388 145.614 38.6797 145.898C38.5206 146.178 38.4392 146.491 38.4354 146.835V148.261C38.4354 148.693 38.5149 149.066 38.674 149.381C38.8369 149.695 39.0661 149.938 39.3615 150.108C39.657 150.278 40.0073 150.364 40.4126 150.364C40.6816 150.364 40.9278 150.326 41.1513 150.25C41.3748 150.174 41.5661 150.061 41.7251 149.909C41.8842 149.758 42.0054 149.572 42.0888 149.352L44.3274 149.5C44.2138 150.038 43.9808 150.508 43.6286 150.909C43.2801 151.307 42.8293 151.617 42.2763 151.841C41.727 152.061 41.0926 152.17 40.3729 152.17ZM50.4013 152.17C49.5073 152.17 48.7384 151.981 48.0945 151.602C47.4543 151.22 46.9619 150.689 46.6172 150.011C46.2763 149.333 46.1058 148.553 46.1058 147.67C46.1058 146.777 46.2782 145.992 46.6229 145.318C46.9714 144.64 47.4657 144.112 48.1058 143.733C48.746 143.35 49.5073 143.159 50.3899 143.159C51.1513 143.159 51.8179 143.297 52.3899 143.574C52.9619 143.85 53.4145 144.239 53.7479 144.739C54.0812 145.239 54.2649 145.826 54.299 146.5H52.0149C51.9505 146.064 51.7801 145.714 51.5036 145.449C51.2308 145.18 50.8729 145.045 50.4297 145.045C50.0547 145.045 49.727 145.148 49.4467 145.352C49.1702 145.553 48.9543 145.847 48.799 146.233C48.6437 146.619 48.5661 147.087 48.5661 147.636C48.5661 148.193 48.6418 148.667 48.7933 149.057C48.9486 149.447 49.1664 149.744 49.4467 149.949C49.727 150.153 50.0547 150.256 50.4297 150.256C50.7062 150.256 50.9543 150.199 51.174 150.085C51.3975 149.972 51.5812 149.807 51.7251 149.591C51.8729 149.371 51.9695 149.108 52.0149 148.801H54.299C54.2611 149.468 54.0793 150.055 53.7536 150.562C53.4316 151.066 52.9865 151.46 52.4183 151.744C51.8501 152.028 51.1778 152.17 50.4013 152.17ZM61.9453 148.284V143.273H64.3658V152H62.0419V150.415H61.951C61.754 150.926 61.4264 151.337 60.968 151.648C60.5135 151.958 59.9586 152.114 59.3033 152.114C58.7199 152.114 58.2067 151.981 57.7635 151.716C57.3203 151.451 56.9737 151.074 56.7237 150.585C56.4775 150.097 56.3525 149.511 56.3487 148.83V143.273H58.7692V148.398C58.773 148.913 58.9112 149.32 59.1839 149.619C59.4567 149.919 59.8222 150.068 60.2805 150.068C60.5722 150.068 60.8449 150.002 61.0987 149.869C61.3525 149.733 61.5571 149.532 61.7124 149.267C61.8714 149.002 61.9491 148.674 61.9453 148.284ZM66.8018 152V143.273H69.1484V144.795H69.2393C69.3984 144.254 69.6655 143.845 70.0405 143.568C70.4155 143.288 70.8473 143.148 71.3359 143.148C71.4571 143.148 71.5878 143.155 71.728 143.17C71.8681 143.186 71.9912 143.206 72.0973 143.233V145.381C71.9837 145.347 71.8265 145.316 71.6257 145.29C71.425 145.263 71.2412 145.25 71.0746 145.25C70.7185 145.25 70.4003 145.328 70.12 145.483C69.8435 145.634 69.6238 145.847 69.4609 146.119C69.3018 146.392 69.2223 146.706 69.2223 147.062V152H66.8018ZM73.8487 152V143.273H76.2692V152H73.8487ZM75.0646 142.148C74.7048 142.148 74.3961 142.028 74.1385 141.79C73.8847 141.547 73.7578 141.258 73.7578 140.92C73.7578 140.587 73.8847 140.301 74.1385 140.062C74.3961 139.82 74.7048 139.699 75.0646 139.699C75.4245 139.699 75.7313 139.82 75.9851 140.062C76.2427 140.301 76.3714 140.587 76.3714 140.92C76.3714 141.258 76.2427 141.547 75.9851 141.79C75.7313 142.028 75.4245 142.148 75.0646 142.148ZM83.3501 143.273V145.091H78.0945V143.273H83.3501ZM79.2876 141.182H81.7081V149.318C81.7081 149.542 81.7422 149.716 81.8104 149.841C81.8786 149.962 81.9732 150.047 82.0945 150.097C82.2195 150.146 82.3634 150.17 82.5263 150.17C82.6399 150.17 82.7536 150.161 82.8672 150.142C82.9808 150.119 83.0679 150.102 83.1286 150.091L83.5092 151.892C83.388 151.93 83.2176 151.973 82.9979 152.023C82.7782 152.076 82.5111 152.108 82.1967 152.119C81.6134 152.142 81.102 152.064 80.6626 151.886C80.227 151.708 79.888 151.432 79.6456 151.057C79.4032 150.682 79.2839 150.208 79.2876 149.636V141.182ZM86.9212 155.273C86.6143 155.273 86.3265 155.248 86.0575 155.199C85.7924 155.153 85.5727 155.095 85.3984 155.023L85.9439 153.216C86.228 153.303 86.4837 153.35 86.7109 153.358C86.942 153.366 87.1409 153.313 87.3075 153.199C87.478 153.085 87.6162 152.892 87.7223 152.619L87.8643 152.25L84.7337 143.273H87.2791L89.0859 149.682H89.1768L91.0007 143.273H93.5632L90.1712 152.943C90.0083 153.413 89.7867 153.822 89.5064 154.17C89.2299 154.523 88.8795 154.794 88.4553 154.983C88.031 155.176 87.5196 155.273 86.9212 155.273ZM99.5504 152V140.364H104.141C105.024 140.364 105.776 140.532 106.397 140.869C107.018 141.203 107.492 141.667 107.817 142.261C108.147 142.852 108.312 143.534 108.312 144.307C108.312 145.08 108.145 145.761 107.812 146.352C107.478 146.943 106.996 147.403 106.363 147.733C105.734 148.062 104.973 148.227 104.079 148.227H101.153V146.256H103.681C104.155 146.256 104.545 146.174 104.852 146.011C105.162 145.845 105.393 145.616 105.545 145.324C105.7 145.028 105.778 144.689 105.778 144.307C105.778 143.92 105.7 143.583 105.545 143.295C105.393 143.004 105.162 142.778 104.852 142.619C104.541 142.456 104.147 142.375 103.67 142.375H102.011V152H99.5504ZM114.167 152.17C113.284 152.17 112.521 151.983 111.877 151.608C111.237 151.229 110.743 150.703 110.394 150.028C110.046 149.35 109.871 148.564 109.871 147.67C109.871 146.769 110.046 145.981 110.394 145.307C110.743 144.629 111.237 144.102 111.877 143.727C112.521 143.348 113.284 143.159 114.167 143.159C115.049 143.159 115.811 143.348 116.451 143.727C117.095 144.102 117.591 144.629 117.94 145.307C118.288 145.981 118.462 146.769 118.462 147.67C118.462 148.564 118.288 149.35 117.94 150.028C117.591 150.703 117.095 151.229 116.451 151.608C115.811 151.983 115.049 152.17 114.167 152.17ZM114.178 150.295C114.58 150.295 114.915 150.182 115.184 149.955C115.453 149.723 115.656 149.409 115.792 149.011C115.932 148.614 116.002 148.161 116.002 147.653C116.002 147.146 115.932 146.693 115.792 146.295C115.656 145.898 115.453 145.583 115.184 145.352C114.915 145.121 114.58 145.006 114.178 145.006C113.773 145.006 113.432 145.121 113.156 145.352C112.883 145.583 112.676 145.898 112.536 146.295C112.4 146.693 112.332 147.146 112.332 147.653C112.332 148.161 112.4 148.614 112.536 149.011C112.676 149.409 112.883 149.723 113.156 149.955C113.432 150.182 113.773 150.295 114.178 150.295ZM122.957 140.364V152H120.536V140.364H122.957ZM125.396 152V143.273H127.816V152H125.396ZM126.612 142.148C126.252 142.148 125.943 142.028 125.685 141.79C125.432 141.547 125.305 141.258 125.305 140.92C125.305 140.587 125.432 140.301 125.685 140.062C125.943 139.82 126.252 139.699 126.612 139.699C126.971 139.699 127.278 139.82 127.532 140.062C127.79 140.301 127.918 140.587 127.918 140.92C127.918 141.258 127.79 141.547 127.532 141.79C127.278 142.028 126.971 142.148 126.612 142.148ZM134.198 152.17C133.304 152.17 132.535 151.981 131.891 151.602C131.251 151.22 130.759 150.689 130.414 150.011C130.073 149.333 129.903 148.553 129.903 147.67C129.903 146.777 130.075 145.992 130.42 145.318C130.768 144.64 131.263 144.112 131.903 143.733C132.543 143.35 133.304 143.159 134.187 143.159C134.948 143.159 135.615 143.297 136.187 143.574C136.759 143.85 137.211 144.239 137.545 144.739C137.878 145.239 138.062 145.826 138.096 146.5H135.812C135.747 146.064 135.577 145.714 135.3 145.449C135.028 145.18 134.67 145.045 134.227 145.045C133.852 145.045 133.524 145.148 133.244 145.352C132.967 145.553 132.751 145.847 132.596 146.233C132.441 146.619 132.363 147.087 132.363 147.636C132.363 148.193 132.439 148.667 132.59 149.057C132.746 149.447 132.963 149.744 133.244 149.949C133.524 150.153 133.852 150.256 134.227 150.256C134.503 150.256 134.751 150.199 134.971 150.085C135.194 149.972 135.378 149.807 135.522 149.591C135.67 149.371 135.766 149.108 135.812 148.801H138.096C138.058 149.468 137.876 150.055 137.55 150.562C137.228 151.066 136.783 151.46 136.215 151.744C135.647 152.028 134.975 152.17 134.198 152.17ZM141.64 155.273C141.333 155.273 141.045 155.248 140.776 155.199C140.511 155.153 140.291 155.095 140.117 155.023L140.663 153.216C140.947 153.303 141.202 153.35 141.43 153.358C141.661 153.366 141.86 153.313 142.026 153.199C142.197 153.085 142.335 152.892 142.441 152.619L142.583 152.25L139.452 143.273H141.998L143.805 149.682H143.896L145.719 143.273H148.282L144.89 152.943C144.727 153.413 144.505 153.822 144.225 154.17C143.949 154.523 143.598 154.794 143.174 154.983C142.75 155.176 142.238 155.273 141.64 155.273Z" fill="black"/>
<defs>
<filter id="filter0_d_954_3402" x="0" y="0" width="172" height="195" filterUnits="userSpaceOnUse" color-interpolation-filters="sRGB">
<feFlood flood-opacity="0" result="BackgroundImageFix"/>
<feColorMatrix in="SourceAlpha" type="matrix" values="0 0 0 0 0 0 0 0 0 0 0 0 0 0 0 0 0 0 127 0" result="hardAlpha"/>
<feOffset dy="4"/>
<feGaussianBlur stdDeviation="2"/>
<feComposite in2="hardAlpha" operator="out"/>
<feColorMatrix type="matrix" values="0 0 0 0 0 0 0 0 0 0 0 0 0 0 0 0 0 0 0.25 0"/>
<feBlend mode="normal" in2="BackgroundImageFix" result="effect1_dropShadow_954_3402"/>
<feBlend mode="normal" in="SourceGraphic" in2="effect1_dropShadow_954_3402" result="shape"/>
</filter>
</defs>
</svg>
