<svg width="172" height="195" viewBox="0 0 172 195" fill="none" xmlns="http://www.w3.org/2000/svg">
<g filter="url(#filter0_d_954_3401)">
<rect x="4" width="164" height="187" rx="10" fill="#F4F4FC"/>
</g>
<ellipse cx="85.7931" cy="71.0639" rx="34.9914" ry="37.0043" fill="white"/>
<path opacity="0.5" d="M87.7844 29.707C79.626 29.707 71.6507 32.1752 64.8672 36.7994C58.0836 41.4235 52.7965 47.996 49.6744 55.6858C46.5523 63.3755 45.7354 71.837 47.327 80.0004C48.9187 88.1638 52.8474 95.6623 58.6163 101.548C64.3852 107.433 71.7353 111.441 79.737 113.065C87.7387 114.689 96.0327 113.855 103.57 110.67C111.108 107.485 117.55 102.091 122.083 95.1706C126.615 88.25 129.034 80.1137 129.034 71.7904C129.034 66.2639 127.967 60.7916 125.894 55.6858C123.821 50.58 120.783 45.9408 116.953 42.033C113.122 38.1252 108.575 35.0253 103.57 32.9104C98.5655 30.7955 93.2015 29.707 87.7844 29.707ZM87.7844 105.457C81.2577 105.457 74.8774 103.483 69.4506 99.7832C64.0238 96.0838 59.7941 90.8258 57.2964 84.674C54.7987 78.5223 54.1452 71.753 55.4185 65.2223C56.6918 58.6916 59.8348 52.6928 64.4499 47.9844C69.0651 43.2761 74.9451 40.0696 81.3465 38.7706C87.7478 37.4716 94.383 38.1383 100.413 40.6864C106.443 43.2346 111.597 47.5497 115.223 53.0862C118.849 58.6226 120.784 65.1317 120.784 71.7904C120.784 80.7193 117.308 89.2826 111.119 95.5963C104.93 101.91 96.5366 105.457 87.7844 105.457Z" fill="#2E7D32"/>
<path d="M120.784 71.7904H129.034C129.034 66.2639 127.967 60.7916 125.894 55.6858C123.821 50.58 120.783 45.9408 116.953 42.033C113.122 38.1252 108.575 35.0253 103.57 32.9104C98.5654 30.7955 93.2015 29.707 87.7844 29.707V38.1237C96.5366 38.1237 104.93 41.6707 111.119 47.9844C117.308 54.2982 120.784 62.8614 120.784 71.7904Z" fill="#2E7D32"/>
<path d="M105.919 58.5831C105.668 58.3247 105.369 58.1196 105.039 57.9796C104.71 57.8396 104.357 57.7676 104 57.7676C103.643 57.7676 103.29 57.8396 102.961 57.9796C102.631 58.1196 102.332 58.3247 102.081 58.5831L81.9469 79.1517L73.4878 70.4942C73.2269 70.2371 72.919 70.035 72.5816 69.8993C72.2441 69.7636 71.8838 69.6971 71.5212 69.7035C71.1586 69.7099 70.8007 69.7891 70.4681 69.9366C70.1354 70.0841 69.8345 70.297 69.5826 70.5631C69.3306 70.8292 69.1324 71.1434 68.9995 71.4876C68.8665 71.8319 68.8013 72.1995 68.8075 72.5695C68.8138 72.9394 68.8915 73.3045 69.036 73.6438C69.1806 73.9832 69.3893 74.2902 69.6501 74.5472L80.0281 85.1348C80.2793 85.3933 80.5782 85.5984 80.9075 85.7384C81.2369 85.8783 81.5901 85.9504 81.9469 85.9504C82.3037 85.9504 82.6569 85.8783 82.9862 85.7384C83.3156 85.5984 83.6145 85.3933 83.8657 85.1348L105.919 62.6362C106.193 62.378 106.412 62.0647 106.562 61.7159C106.712 61.3671 106.789 60.9905 106.789 60.6097C106.789 60.2289 106.712 59.8523 106.562 59.5035C106.412 59.1547 106.193 58.8413 105.919 58.5831Z" fill="#2E7D32"/>
<path d="M36.5739 153V141.364H41.1648C42.0436 141.364 42.7936 141.521 43.4148 141.835C44.0398 142.146 44.5152 142.587 44.8409 143.159C45.1705 143.727 45.3352 144.396 45.3352 145.165C45.3352 145.937 45.1686 146.602 44.8352 147.159C44.5019 147.712 44.0189 148.136 43.3864 148.432C42.7576 148.727 41.9962 148.875 41.1023 148.875H38.0284V146.898H40.7045C41.1742 146.898 41.5644 146.833 41.875 146.705C42.1856 146.576 42.4167 146.383 42.5682 146.125C42.7235 145.867 42.8011 145.547 42.8011 145.165C42.8011 144.778 42.7235 144.453 42.5682 144.188C42.4167 143.922 42.1837 143.722 41.8693 143.585C41.5587 143.445 41.1667 143.375 40.6932 143.375H39.0341V153H36.5739ZM42.858 147.705L45.75 153H43.0341L40.2045 147.705H42.858ZM47.5739 153V141.364H55.4148V143.392H50.0341V146.165H55.0114V148.193H50.0341V150.972H55.4375V153H47.5739ZM59.8764 153H57.2401L61.2571 141.364H64.4276L68.4389 153H65.8026L62.8878 144.023H62.7969L59.8764 153ZM59.7116 148.426H65.9389V150.347H59.7116V148.426ZM74.4645 153H70.3395V141.364H74.4986C75.669 141.364 76.6766 141.597 77.5213 142.062C78.366 142.525 79.0156 143.189 79.4702 144.057C79.9285 144.924 80.1577 145.962 80.1577 147.17C80.1577 148.383 79.9285 149.424 79.4702 150.295C79.0156 151.167 78.3622 151.835 77.5099 152.301C76.6615 152.767 75.6463 153 74.4645 153ZM72.7997 150.892H74.3622C75.0895 150.892 75.7012 150.763 76.1974 150.506C76.6974 150.244 77.0724 149.841 77.3224 149.295C77.5762 148.746 77.7031 148.038 77.7031 147.17C77.7031 146.311 77.5762 145.608 77.3224 145.062C77.0724 144.517 76.6993 144.116 76.2031 143.858C75.7069 143.6 75.0952 143.472 74.3679 143.472H72.7997V150.892ZM82.4801 141.364H85.5142L88.7188 149.182H88.8551L92.0597 141.364H95.0938V153H92.7074V145.426H92.6108L89.5994 152.943H87.9744L84.9631 145.398H84.8665V153H82.4801V141.364ZM97.6207 153V141.364H105.462V143.392H100.081V146.165H105.058V148.193H100.081V150.972H105.484V153H97.6207ZM109.287 153.148C108.912 153.148 108.59 153.015 108.321 152.75C108.056 152.481 107.923 152.159 107.923 151.784C107.923 151.413 108.056 151.095 108.321 150.83C108.59 150.564 108.912 150.432 109.287 150.432C109.651 150.432 109.969 150.564 110.241 150.83C110.514 151.095 110.651 151.413 110.651 151.784C110.651 152.034 110.586 152.263 110.457 152.472C110.332 152.676 110.168 152.841 109.963 152.966C109.759 153.087 109.533 153.148 109.287 153.148ZM113.138 153V144.273H115.445V145.812H115.547C115.729 145.301 116.032 144.898 116.456 144.602C116.88 144.307 117.388 144.159 117.979 144.159C118.577 144.159 119.087 144.309 119.507 144.608C119.928 144.903 120.208 145.305 120.348 145.812H120.439C120.617 145.312 120.939 144.913 121.405 144.614C121.875 144.311 122.429 144.159 123.07 144.159C123.884 144.159 124.545 144.419 125.053 144.938C125.564 145.453 125.82 146.184 125.82 147.131V153H123.405V147.608C123.405 147.123 123.276 146.759 123.018 146.517C122.761 146.275 122.439 146.153 122.053 146.153C121.613 146.153 121.27 146.294 121.024 146.574C120.778 146.85 120.655 147.216 120.655 147.67V153H118.308V147.557C118.308 147.129 118.185 146.788 117.939 146.534C117.696 146.28 117.376 146.153 116.979 146.153C116.71 146.153 116.467 146.222 116.251 146.358C116.039 146.491 115.871 146.678 115.746 146.92C115.621 147.159 115.558 147.439 115.558 147.761V153H113.138ZM131.447 153.142C130.785 153.142 130.184 152.972 129.646 152.631C129.112 152.286 128.688 151.78 128.374 151.114C128.063 150.443 127.908 149.621 127.908 148.648C127.908 147.648 128.069 146.816 128.391 146.153C128.713 145.487 129.141 144.989 129.675 144.659C130.213 144.326 130.802 144.159 131.442 144.159C131.93 144.159 132.338 144.242 132.663 144.409C132.993 144.572 133.258 144.777 133.459 145.023C133.663 145.265 133.819 145.504 133.925 145.739H133.999V141.364H136.413V153H134.027V151.602H133.925C133.811 151.845 133.65 152.085 133.442 152.324C133.237 152.559 132.97 152.754 132.641 152.909C132.315 153.064 131.917 153.142 131.447 153.142ZM132.214 151.216C132.605 151.216 132.934 151.11 133.203 150.898C133.476 150.682 133.684 150.381 133.828 149.994C133.976 149.608 134.05 149.155 134.05 148.636C134.05 148.117 133.978 147.667 133.834 147.284C133.69 146.902 133.482 146.606 133.209 146.398C132.936 146.189 132.605 146.085 132.214 146.085C131.817 146.085 131.482 146.193 131.209 146.409C130.936 146.625 130.73 146.924 130.589 147.307C130.449 147.689 130.379 148.133 130.379 148.636C130.379 149.144 130.449 149.593 130.589 149.983C130.733 150.369 130.94 150.672 131.209 150.892C131.482 151.108 131.817 151.216 132.214 151.216Z" fill="black"/>
<defs>
<filter id="filter0_d_954_3401" x="0" y="0" width="172" height="195" filterUnits="userSpaceOnUse" color-interpolation-filters="sRGB">
<feFlood flood-opacity="0" result="BackgroundImageFix"/>
<feColorMatrix in="SourceAlpha" type="matrix" values="0 0 0 0 0 0 0 0 0 0 0 0 0 0 0 0 0 0 127 0" result="hardAlpha"/>
<feOffset dy="4"/>
<feGaussianBlur stdDeviation="2"/>
<feComposite in2="hardAlpha" operator="out"/>
<feColorMatrix type="matrix" values="0 0 0 0 0 0 0 0 0 0 0 0 0 0 0 0 0 0 0.25 0"/>
<feBlend mode="normal" in2="BackgroundImageFix" result="effect1_dropShadow_954_3401"/>
<feBlend mode="normal" in="SourceGraphic" in2="effect1_dropShadow_954_3401" result="shape"/>
</filter>
</defs>
</svg>
