<svg width="172" height="195" viewBox="0 0 172 195" fill="none" xmlns="http://www.w3.org/2000/svg">
<g filter="url(#filter0_d_954_3404)">
<rect x="4" width="164" height="187" rx="10" fill="#F4F4FC"/>
</g>
<ellipse cx="84.7931" cy="76.0639" rx="34.9914" ry="37.0043" fill="white"/>
<path opacity="0.5" d="M86.7844 34.707C78.626 34.707 70.6507 37.1752 63.8672 41.7994C57.0836 46.4235 51.7965 52.996 48.6744 60.6858C45.5523 68.3755 44.7354 76.837 46.327 85.0004C47.9187 93.1638 51.8474 100.662 57.6163 106.548C63.3852 112.433 70.7353 116.441 78.737 118.065C86.7387 119.689 95.0327 118.855 102.57 115.67C110.108 112.485 116.55 107.091 121.083 100.171C125.615 93.25 128.034 85.1137 128.034 76.7904C128.034 71.2639 126.967 65.7916 124.894 60.6858C122.821 55.58 119.783 50.9408 115.953 47.033C112.122 43.1252 107.575 40.0253 102.57 37.9104C97.5655 35.7955 92.2015 34.707 86.7844 34.707ZM86.7844 110.457C80.2577 110.457 73.8774 108.483 68.4506 104.783C63.0238 101.084 58.7941 95.8258 56.2964 89.674C53.7987 83.5223 53.1452 76.753 54.4185 70.2223C55.6918 63.6916 58.8348 57.6928 63.4499 52.9844C68.0651 48.2761 73.9451 45.0696 80.3465 43.7706C86.7478 42.4716 93.383 43.1383 99.413 45.6864C105.443 48.2346 110.597 52.5497 114.223 58.0862C117.849 63.6226 119.784 70.1317 119.784 76.7904C119.784 85.7193 116.308 94.2826 110.119 100.596C103.93 106.91 95.5366 110.457 86.7844 110.457Z" fill="#2E7D32"/>
<path d="M119.784 76.7904H128.034C128.034 71.2639 126.967 65.7916 124.894 60.6858C122.821 55.58 119.783 50.9408 115.953 47.033C112.122 43.1252 107.575 40.0253 102.57 37.9104C97.5654 35.7955 92.2015 34.707 86.7844 34.707V43.1237C95.5366 43.1237 103.93 46.6707 110.119 52.9844C116.308 59.2982 119.784 67.8614 119.784 76.7904Z" fill="#2E7D32"/>
<path d="M104.919 63.5831C104.668 63.3247 104.369 63.1196 104.039 62.9796C103.71 62.8396 103.357 62.7676 103 62.7676C102.643 62.7676 102.29 62.8396 101.961 62.9796C101.631 63.1196 101.332 63.3247 101.081 63.5831L80.9469 84.1517L72.4878 75.4942C72.2269 75.2371 71.919 75.035 71.5816 74.8993C71.2441 74.7636 70.8838 74.6971 70.5212 74.7035C70.1586 74.7099 69.8007 74.7891 69.4681 74.9366C69.1354 75.0841 68.8345 75.297 68.5826 75.5631C68.3306 75.8292 68.1324 76.1434 67.9995 76.4876C67.8665 76.8319 67.8013 77.1995 67.8075 77.5695C67.8138 77.9394 67.8915 78.3045 68.036 78.6438C68.1806 78.9832 68.3893 79.2902 68.6501 79.5472L79.0281 90.1348C79.2793 90.3933 79.5782 90.5984 79.9075 90.7384C80.2369 90.8783 80.5901 90.9504 80.9469 90.9504C81.3037 90.9504 81.6569 90.8783 81.9862 90.7384C82.3156 90.5984 82.6145 90.3933 82.8657 90.1348L104.919 67.6362C105.193 67.378 105.412 67.0647 105.562 66.7159C105.712 66.3671 105.789 65.9905 105.789 65.6097C105.789 65.2289 105.712 64.8523 105.562 64.5035C105.412 64.1547 105.193 63.8413 104.919 63.5831Z" fill="#2E7D32"/>
<path d="M26.7926 143.71C26.7472 143.252 26.5521 142.896 26.2074 142.642C25.8627 142.388 25.3949 142.261 24.804 142.261C24.4025 142.261 24.0634 142.318 23.7869 142.432C23.5104 142.542 23.2983 142.695 23.1506 142.892C23.0066 143.089 22.9347 143.312 22.9347 143.562C22.9271 143.771 22.9706 143.953 23.0653 144.108C23.1638 144.263 23.2983 144.398 23.4688 144.511C23.6392 144.621 23.8362 144.718 24.0597 144.801C24.2831 144.881 24.5218 144.949 24.7756 145.006L25.821 145.256C26.3286 145.369 26.7945 145.521 27.2188 145.71C27.643 145.9 28.0104 146.133 28.321 146.409C28.6316 146.686 28.8722 147.011 29.0426 147.386C29.2169 147.761 29.3059 148.191 29.3097 148.676C29.3059 149.388 29.1241 150.006 28.7642 150.528C28.4081 151.047 27.893 151.451 27.2188 151.739C26.5483 152.023 25.7396 152.165 24.7926 152.165C23.8532 152.165 23.035 152.021 22.3381 151.733C21.6449 151.445 21.1032 151.019 20.7131 150.455C20.3267 149.886 20.1241 149.184 20.1051 148.347H22.4858C22.5123 148.737 22.6241 149.062 22.821 149.324C23.0218 149.581 23.2888 149.777 23.6222 149.909C23.9593 150.038 24.34 150.102 24.7642 150.102C25.1809 150.102 25.5426 150.042 25.8494 149.92C26.16 149.799 26.4006 149.631 26.571 149.415C26.7415 149.199 26.8267 148.951 26.8267 148.67C26.8267 148.409 26.7491 148.189 26.5938 148.011C26.4422 147.833 26.2188 147.682 25.9233 147.557C25.6316 147.432 25.2737 147.318 24.8494 147.216L23.5824 146.898C22.6013 146.659 21.8267 146.286 21.2585 145.778C20.6903 145.271 20.4081 144.587 20.4119 143.727C20.4081 143.023 20.5956 142.407 20.9744 141.881C21.357 141.354 21.8816 140.943 22.5483 140.648C23.215 140.352 23.9725 140.205 24.821 140.205C25.6847 140.205 26.4384 140.352 27.0824 140.648C27.7301 140.943 28.2339 141.354 28.5938 141.881C28.9536 142.407 29.1392 143.017 29.1506 143.71H26.7926ZM35.3963 152.17C34.4986 152.17 33.7259 151.989 33.0781 151.625C32.4342 151.258 31.938 150.739 31.5895 150.068C31.241 149.394 31.0668 148.597 31.0668 147.676C31.0668 146.778 31.241 145.991 31.5895 145.312C31.938 144.634 32.4285 144.106 33.0611 143.727C33.6974 143.348 34.4437 143.159 35.2997 143.159C35.8755 143.159 36.4115 143.252 36.9077 143.438C37.4077 143.619 37.8433 143.894 38.2145 144.261C38.5895 144.629 38.8812 145.091 39.0895 145.648C39.2978 146.201 39.402 146.848 39.402 147.591V148.256H32.0327V146.756H37.1236C37.1236 146.407 37.0478 146.098 36.8963 145.83C36.7448 145.561 36.5346 145.35 36.2656 145.199C36.0005 145.044 35.6918 144.966 35.3395 144.966C34.9721 144.966 34.6463 145.051 34.3622 145.222C34.0819 145.388 33.8622 145.614 33.7031 145.898C33.544 146.178 33.4626 146.491 33.4588 146.835V148.261C33.4588 148.693 33.5384 149.066 33.6974 149.381C33.8603 149.695 34.0895 149.938 34.3849 150.108C34.6804 150.278 35.0308 150.364 35.4361 150.364C35.705 150.364 35.9512 150.326 36.1747 150.25C36.3982 150.174 36.5895 150.061 36.7486 149.909C36.9077 149.758 37.0289 149.572 37.1122 149.352L39.3509 149.5C39.2372 150.038 39.0043 150.508 38.652 150.909C38.3035 151.307 37.8527 151.617 37.2997 151.841C36.7505 152.061 36.116 152.17 35.3963 152.17ZM45.4247 152.17C44.5308 152.17 43.7618 151.981 43.1179 151.602C42.4777 151.22 41.9853 150.689 41.6406 150.011C41.2997 149.333 41.1293 148.553 41.1293 147.67C41.1293 146.777 41.3016 145.992 41.6463 145.318C41.9948 144.64 42.4891 144.112 43.1293 143.733C43.7694 143.35 44.5308 143.159 45.4134 143.159C46.1747 143.159 46.8414 143.297 47.4134 143.574C47.9853 143.85 48.438 144.239 48.7713 144.739C49.1046 145.239 49.2884 145.826 49.3224 146.5H47.0384C46.974 146.064 46.8035 145.714 46.527 145.449C46.2543 145.18 45.8963 145.045 45.4531 145.045C45.0781 145.045 44.7505 145.148 44.4702 145.352C44.1937 145.553 43.9777 145.847 43.8224 146.233C43.6671 146.619 43.5895 147.087 43.5895 147.636C43.5895 148.193 43.6652 148.667 43.8168 149.057C43.9721 149.447 44.1899 149.744 44.4702 149.949C44.7505 150.153 45.0781 150.256 45.4531 150.256C45.7296 150.256 45.9777 150.199 46.1974 150.085C46.4209 149.972 46.6046 149.807 46.7486 149.591C46.8963 149.371 46.9929 149.108 47.0384 148.801H49.3224C49.2846 149.468 49.1027 150.055 48.777 150.562C48.455 151.066 48.0099 151.46 47.4418 151.744C46.8736 152.028 46.2012 152.17 45.4247 152.17ZM51.3722 152V143.273H53.7188V144.795H53.8097C53.9688 144.254 54.2358 143.845 54.6108 143.568C54.9858 143.288 55.4176 143.148 55.9062 143.148C56.0275 143.148 56.1581 143.155 56.2983 143.17C56.4384 143.186 56.5616 143.206 56.6676 143.233V145.381C56.554 145.347 56.3968 145.316 56.196 145.29C55.9953 145.263 55.8116 145.25 55.6449 145.25C55.2888 145.25 54.9706 145.328 54.6903 145.483C54.4138 145.634 54.1941 145.847 54.0312 146.119C53.8722 146.392 53.7926 146.706 53.7926 147.062V152H51.3722ZM61.9901 152.17C61.0923 152.17 60.3196 151.989 59.6719 151.625C59.0279 151.258 58.5317 150.739 58.1832 150.068C57.8348 149.394 57.6605 148.597 57.6605 147.676C57.6605 146.778 57.8348 145.991 58.1832 145.312C58.5317 144.634 59.0223 144.106 59.6548 143.727C60.2912 143.348 61.0374 143.159 61.8935 143.159C62.4692 143.159 63.0052 143.252 63.5014 143.438C64.0014 143.619 64.437 143.894 64.8082 144.261C65.1832 144.629 65.4749 145.091 65.6832 145.648C65.8916 146.201 65.9957 146.848 65.9957 147.591V148.256H58.6264V146.756H63.7173C63.7173 146.407 63.6416 146.098 63.4901 145.83C63.3385 145.561 63.1283 145.35 62.8594 145.199C62.5942 145.044 62.2855 144.966 61.9332 144.966C61.5658 144.966 61.2401 145.051 60.956 145.222C60.6757 145.388 60.456 145.614 60.2969 145.898C60.1378 146.178 60.0563 146.491 60.0526 146.835V148.261C60.0526 148.693 60.1321 149.066 60.2912 149.381C60.4541 149.695 60.6832 149.938 60.9787 150.108C61.2741 150.278 61.6245 150.364 62.0298 150.364C62.2988 150.364 62.545 150.326 62.7685 150.25C62.992 150.174 63.1832 150.061 63.3423 149.909C63.5014 149.758 63.6226 149.572 63.706 149.352L65.9446 149.5C65.831 150.038 65.598 150.508 65.2457 150.909C64.8973 151.307 64.4465 151.617 63.8935 151.841C63.3442 152.061 62.7098 152.17 61.9901 152.17ZM72.7173 143.273V145.091H67.4616V143.273H72.7173ZM68.6548 141.182H71.0753V149.318C71.0753 149.542 71.1094 149.716 71.1776 149.841C71.2457 149.962 71.3404 150.047 71.4616 150.097C71.5866 150.146 71.7306 150.17 71.8935 150.17C72.0071 150.17 72.1207 150.161 72.2344 150.142C72.348 150.119 72.4351 150.102 72.4957 150.091L72.8764 151.892C72.7552 151.93 72.5848 151.973 72.3651 152.023C72.1454 152.076 71.8783 152.108 71.5639 152.119C70.9806 152.142 70.4692 152.064 70.0298 151.886C69.5942 151.708 69.2552 151.432 69.0128 151.057C68.7704 150.682 68.651 150.208 68.6548 149.636V141.182ZM86.2585 145.761L84.0426 145.898C84.0047 145.708 83.9233 145.538 83.7983 145.386C83.6733 145.231 83.5085 145.108 83.304 145.017C83.1032 144.922 82.8627 144.875 82.5824 144.875C82.2074 144.875 81.8911 144.955 81.6335 145.114C81.3759 145.269 81.2472 145.477 81.2472 145.739C81.2472 145.947 81.3305 146.123 81.4972 146.267C81.6638 146.411 81.9498 146.527 82.3551 146.614L83.9347 146.932C84.7831 147.106 85.4157 147.386 85.8324 147.773C86.2491 148.159 86.4574 148.667 86.4574 149.295C86.4574 149.867 86.2888 150.369 85.9517 150.801C85.6184 151.233 85.16 151.57 84.5767 151.812C83.9972 152.051 83.3286 152.17 82.571 152.17C81.4157 152.17 80.4953 151.93 79.8097 151.449C79.1278 150.964 78.7282 150.305 78.6108 149.472L80.9915 149.347C81.0634 149.699 81.2377 149.968 81.5142 150.153C81.7907 150.335 82.1449 150.426 82.5767 150.426C83.0009 150.426 83.3419 150.345 83.5994 150.182C83.8608 150.015 83.9934 149.801 83.9972 149.54C83.9934 149.32 83.9006 149.14 83.7188 149C83.5369 148.856 83.2566 148.746 82.8778 148.67L81.3665 148.369C80.5142 148.199 79.8797 147.903 79.4631 147.483C79.0502 147.062 78.8438 146.527 78.8438 145.875C78.8438 145.314 78.9953 144.831 79.2983 144.426C79.6051 144.021 80.035 143.708 80.5881 143.489C81.1449 143.269 81.7964 143.159 82.5426 143.159C83.6449 143.159 84.5123 143.392 85.1449 143.858C85.7813 144.324 86.1525 144.958 86.2585 145.761ZM92.4247 152.17C91.5308 152.17 90.7618 151.981 90.1179 151.602C89.4777 151.22 88.9853 150.689 88.6406 150.011C88.2997 149.333 88.1293 148.553 88.1293 147.67C88.1293 146.777 88.3016 145.992 88.6463 145.318C88.9948 144.64 89.4891 144.112 90.1293 143.733C90.7694 143.35 91.5308 143.159 92.4134 143.159C93.1747 143.159 93.8414 143.297 94.4134 143.574C94.9853 143.85 95.438 144.239 95.7713 144.739C96.1046 145.239 96.2884 145.826 96.3224 146.5H94.0384C93.974 146.064 93.8035 145.714 93.527 145.449C93.2543 145.18 92.8963 145.045 92.4531 145.045C92.0781 145.045 91.7505 145.148 91.4702 145.352C91.1937 145.553 90.9777 145.847 90.8224 146.233C90.6671 146.619 90.5895 147.087 90.5895 147.636C90.5895 148.193 90.6652 148.667 90.8168 149.057C90.9721 149.447 91.1899 149.744 91.4702 149.949C91.7505 150.153 92.0781 150.256 92.4531 150.256C92.7296 150.256 92.9777 150.199 93.1974 150.085C93.4209 149.972 93.6046 149.807 93.7486 149.591C93.8963 149.371 93.9929 149.108 94.0384 148.801H96.3224C96.2846 149.468 96.1027 150.055 95.777 150.562C95.455 151.066 95.0099 151.46 94.4418 151.744C93.8736 152.028 93.2012 152.17 92.4247 152.17ZM100.861 152.165C100.304 152.165 99.8078 152.068 99.3722 151.875C98.9366 151.678 98.5919 151.388 98.3381 151.006C98.0881 150.619 97.9631 150.138 97.9631 149.562C97.9631 149.078 98.0521 148.67 98.2301 148.341C98.4081 148.011 98.6506 147.746 98.9574 147.545C99.2642 147.345 99.6127 147.193 100.003 147.091C100.397 146.989 100.81 146.917 101.241 146.875C101.749 146.822 102.158 146.773 102.469 146.727C102.779 146.678 103.005 146.606 103.145 146.511C103.285 146.417 103.355 146.277 103.355 146.091V146.057C103.355 145.697 103.241 145.419 103.014 145.222C102.791 145.025 102.473 144.926 102.06 144.926C101.624 144.926 101.277 145.023 101.02 145.216C100.762 145.405 100.592 145.644 100.509 145.932L98.2699 145.75C98.3835 145.22 98.607 144.761 98.9403 144.375C99.2737 143.985 99.7036 143.686 100.23 143.477C100.76 143.265 101.374 143.159 102.071 143.159C102.556 143.159 103.02 143.216 103.463 143.33C103.91 143.443 104.306 143.619 104.651 143.858C104.999 144.097 105.274 144.403 105.474 144.778C105.675 145.15 105.776 145.595 105.776 146.114V152H103.48V150.79H103.412C103.272 151.062 103.084 151.303 102.849 151.511C102.615 151.716 102.332 151.877 102.003 151.994C101.673 152.108 101.293 152.165 100.861 152.165ZM101.554 150.494C101.91 150.494 102.224 150.424 102.497 150.284C102.77 150.14 102.984 149.947 103.139 149.705C103.295 149.462 103.372 149.187 103.372 148.881V147.955C103.296 148.004 103.192 148.049 103.06 148.091C102.931 148.129 102.785 148.165 102.622 148.199C102.459 148.229 102.296 148.258 102.134 148.284C101.971 148.307 101.823 148.328 101.69 148.347C101.406 148.388 101.158 148.455 100.946 148.545C100.734 148.636 100.569 148.759 100.452 148.915C100.334 149.066 100.276 149.256 100.276 149.483C100.276 149.812 100.395 150.064 100.634 150.239C100.876 150.409 101.183 150.494 101.554 150.494ZM110.574 146.955V152H108.153V143.273H110.46V144.812H110.562C110.756 144.305 111.08 143.903 111.534 143.608C111.989 143.309 112.54 143.159 113.188 143.159C113.794 143.159 114.322 143.292 114.773 143.557C115.223 143.822 115.574 144.201 115.824 144.693C116.074 145.182 116.199 145.765 116.199 146.443V152H113.778V146.875C113.782 146.341 113.646 145.924 113.369 145.625C113.093 145.322 112.712 145.17 112.227 145.17C111.902 145.17 111.614 145.241 111.364 145.381C111.117 145.521 110.924 145.725 110.784 145.994C110.648 146.259 110.578 146.58 110.574 146.955ZM121.027 146.955V152H118.607V143.273H120.913V144.812H121.016C121.209 144.305 121.533 143.903 121.987 143.608C122.442 143.309 122.993 143.159 123.641 143.159C124.247 143.159 124.775 143.292 125.226 143.557C125.677 143.822 126.027 144.201 126.277 144.693C126.527 145.182 126.652 145.765 126.652 146.443V152H124.232V146.875C124.235 146.341 124.099 145.924 123.822 145.625C123.546 145.322 123.165 145.17 122.68 145.17C122.355 145.17 122.067 145.241 121.817 145.381C121.571 145.521 121.377 145.725 121.237 145.994C121.101 146.259 121.031 146.58 121.027 146.955ZM129.06 152V143.273H131.48V152H129.06ZM130.276 142.148C129.916 142.148 129.607 142.028 129.349 141.79C129.096 141.547 128.969 141.258 128.969 140.92C128.969 140.587 129.096 140.301 129.349 140.062C129.607 139.82 129.916 139.699 130.276 139.699C130.635 139.699 130.942 139.82 131.196 140.062C131.454 140.301 131.582 140.587 131.582 140.92C131.582 141.258 131.454 141.547 131.196 141.79C130.942 142.028 130.635 142.148 130.276 142.148ZM136.339 146.955V152H133.919V143.273H136.226V144.812H136.328C136.521 144.305 136.845 143.903 137.3 143.608C137.754 143.309 138.305 143.159 138.953 143.159C139.559 143.159 140.088 143.292 140.538 143.557C140.989 143.822 141.339 144.201 141.589 144.693C141.839 145.182 141.964 145.765 141.964 146.443V152H139.544V146.875C139.548 146.341 139.411 145.924 139.135 145.625C138.858 145.322 138.478 145.17 137.993 145.17C137.667 145.17 137.379 145.241 137.129 145.381C136.883 145.521 136.69 145.725 136.55 145.994C136.413 146.259 136.343 146.58 136.339 146.955ZM148.304 155.455C147.52 155.455 146.848 155.347 146.287 155.131C145.73 154.919 145.287 154.629 144.957 154.261C144.628 153.894 144.414 153.481 144.315 153.023L146.554 152.722C146.622 152.896 146.73 153.059 146.878 153.21C147.026 153.362 147.221 153.483 147.463 153.574C147.709 153.669 148.009 153.716 148.361 153.716C148.887 153.716 149.321 153.587 149.662 153.33C150.007 153.076 150.179 152.65 150.179 152.051V150.455H150.077C149.971 150.697 149.812 150.926 149.599 151.142C149.387 151.358 149.115 151.534 148.781 151.67C148.448 151.807 148.05 151.875 147.588 151.875C146.933 151.875 146.336 151.723 145.798 151.42C145.264 151.114 144.838 150.646 144.52 150.017C144.205 149.384 144.048 148.585 144.048 147.619C144.048 146.631 144.209 145.805 144.531 145.142C144.853 144.479 145.281 143.983 145.815 143.653C146.353 143.324 146.942 143.159 147.582 143.159C148.071 143.159 148.48 143.242 148.81 143.409C149.139 143.572 149.404 143.777 149.605 144.023C149.81 144.265 149.967 144.504 150.077 144.739H150.168V143.273H152.571V152.085C152.571 152.828 152.389 153.449 152.026 153.949C151.662 154.449 151.158 154.824 150.514 155.074C149.874 155.328 149.137 155.455 148.304 155.455ZM148.355 150.057C148.745 150.057 149.075 149.96 149.344 149.767C149.616 149.57 149.825 149.29 149.969 148.926C150.116 148.559 150.19 148.119 150.19 147.608C150.19 147.097 150.118 146.653 149.974 146.278C149.83 145.9 149.622 145.606 149.349 145.398C149.077 145.189 148.745 145.085 148.355 145.085C147.957 145.085 147.622 145.193 147.349 145.409C147.077 145.621 146.87 145.917 146.73 146.295C146.59 146.674 146.52 147.112 146.52 147.608C146.52 148.112 146.59 148.547 146.73 148.915C146.874 149.278 147.08 149.561 147.349 149.761C147.622 149.958 147.957 150.057 148.355 150.057Z" fill="black"/>
<defs>
<filter id="filter0_d_954_3404" x="0" y="0" width="172" height="195" filterUnits="userSpaceOnUse" color-interpolation-filters="sRGB">
<feFlood flood-opacity="0" result="BackgroundImageFix"/>
<feColorMatrix in="SourceAlpha" type="matrix" values="0 0 0 0 0 0 0 0 0 0 0 0 0 0 0 0 0 0 127 0" result="hardAlpha"/>
<feOffset dy="4"/>
<feGaussianBlur stdDeviation="2"/>
<feComposite in2="hardAlpha" operator="out"/>
<feColorMatrix type="matrix" values="0 0 0 0 0 0 0 0 0 0 0 0 0 0 0 0 0 0 0.25 0"/>
<feBlend mode="normal" in2="BackgroundImageFix" result="effect1_dropShadow_954_3404"/>
<feBlend mode="normal" in="SourceGraphic" in2="effect1_dropShadow_954_3404" result="shape"/>
</filter>
</defs>
</svg>
