<svg width="1280" height="260" viewBox="0 0 1280 260" fill="none" xmlns="http://www.w3.org/2000/svg">
<path d="M162.19 118.927C91.7075 80.6642 24.6956 113.702 0 135.003V260H1280V219.808C1247.96 186.181 1139.94 122.142 964.13 135.003C744.372 151.08 801.94 251.961 544.138 248.746C286.336 245.531 250.293 166.755 162.19 118.927Z" fill="#228CE0" fill-opacity="0.49"/>
<path d="M1039.35 38.753C1176.07 -56.7992 1256.75 46.6189 1280 110.272V259.119H0V189.778C51.4857 168.722 176.779 123.342 266.065 110.272C377.672 93.9351 606.866 209.382 722.958 217.732C839.05 226.082 868.447 158.193 1039.35 38.753Z" fill="#4D2DB7" fill-opacity="0.5"/>
</svg>
