<svg width="188" height="23" viewBox="0 0 188 23" fill="none" xmlns="http://www.w3.org/2000/svg">
<g clip-path="url(#clip0_96_182)">
<path d="M18.6722 11.0789V12.1122C18.6722 13.7693 18.4495 15.2567 18.0041 16.5744C17.5587 17.8921 16.9303 19.0151 16.1187 19.9435C15.3071 20.8619 14.3372 21.5657 13.2089 22.0549C12.0905 22.544 10.8484 22.7886 9.48259 22.7886C8.12666 22.7886 6.88454 22.544 5.75628 22.0549C4.63788 21.5657 3.66795 20.8619 2.84649 19.9435C2.02501 19.0151 1.38664 17.8921 0.931369 16.5744C0.485993 15.2567 0.263306 13.7693 0.263306 12.1122V11.0789C0.263306 9.41186 0.485993 7.92442 0.931369 6.61669C1.37675 5.299 2.00522 4.17594 2.81679 3.24756C3.63826 2.31917 4.60819 1.61041 5.72659 1.12126C6.85484 0.632108 8.09696 0.387532 9.45289 0.387532C10.8187 0.387532 12.0608 0.632108 13.1792 1.12126C14.3075 1.61041 15.2774 2.31917 16.089 3.24756C16.9105 4.17594 17.5439 5.299 17.9893 6.61669C18.4445 7.92442 18.6722 9.41186 18.6722 11.0789ZM14.1739 12.1122V11.049C14.1739 9.89102 14.0699 8.87279 13.8621 7.99429C13.6543 7.11584 13.3474 6.37714 12.9417 5.77816C12.5359 5.17919 12.041 4.72998 11.4571 4.4305C10.8731 4.12104 10.2051 3.96631 9.45289 3.96631C8.70069 3.96631 8.03266 4.12104 7.44869 4.4305C6.87466 4.72998 6.38474 5.17919 5.97895 5.77816C5.58308 6.37714 5.28122 7.11584 5.07335 7.99429C4.86552 8.87279 4.7616 9.89102 4.7616 11.049V12.1122C4.7616 13.2602 4.86552 14.2784 5.07335 15.1668C5.28122 16.0453 5.588 16.789 5.99379 17.398C6.39959 17.9969 6.89447 18.4511 7.47839 18.7606C8.06235 19.07 8.73038 19.2248 9.48259 19.2248C10.2348 19.2248 10.9028 19.07 11.4868 18.7606C12.0707 18.4511 12.5606 17.9969 12.9565 17.398C13.3524 16.789 13.6543 16.0453 13.8621 15.1668C14.0699 14.2784 14.1739 13.2602 14.1739 12.1122ZM30.2965 14.7176H24.7887V11.2137H30.2965C31.1476 11.2137 31.8404 11.0739 32.3749 10.7944C32.9094 10.5049 33.3003 10.1056 33.5477 9.59652C33.7951 9.0874 33.9188 8.51338 33.9188 7.87449C33.9188 7.22563 33.7951 6.6217 33.5477 6.06265C33.3003 5.50365 32.9094 5.05442 32.3749 4.71501C31.8404 4.3756 31.1476 4.20589 30.2965 4.20589H26.3326V22.4891H21.8789V0.687012H30.2965C31.9889 0.687012 33.4389 0.996474 34.6463 1.6154C35.8636 2.22434 36.794 3.06787 37.4373 4.146C38.0806 5.22412 38.4023 6.45697 38.4023 7.84459C38.4023 9.25214 38.0806 10.47 37.4373 11.4982C36.794 12.5264 35.8636 13.32 34.6463 13.8791C33.4389 14.4381 31.9889 14.7176 30.2965 14.7176ZM55.98 18.9852V22.4891H44.4743V18.9852H55.98ZM45.9292 0.687012V22.4891H41.4754V0.687012H45.9292ZM54.4805 9.56657V12.9806H44.4743V9.56657H54.4805ZM55.9648 0.687012V4.20589H44.4743V0.687012H55.9648ZM76.1699 0.687012V22.4891H71.7162L63.0317 7.87449V22.4891H58.578V0.687012H63.0317L71.7314 15.3166V0.687012H76.1699ZM98.8693 16.784C98.8693 16.3947 98.81 16.0453 98.6914 15.7358C98.5825 15.4164 98.3747 15.1269 98.0676 14.8674C97.761 14.5978 97.3303 14.3333 96.7765 14.0738C96.2221 13.8142 95.5045 13.5447 94.6233 13.2651C93.6438 12.9457 92.7134 12.5863 91.8327 12.187C90.9616 11.7877 90.1894 11.3235 89.5164 10.7944C88.8536 10.2554 88.3291 9.63148 87.943 8.92267C87.567 8.21392 87.379 7.39036 87.379 6.45196C87.379 5.54356 87.5766 4.72 87.9724 3.98128C88.3687 3.23259 88.9225 2.5937 89.6355 2.06461C90.348 1.52556 91.1892 1.11127 92.1591 0.821776C93.1391 0.532283 94.2129 0.387532 95.3809 0.387532C96.9741 0.387532 98.3646 0.67703 99.5524 1.25602C100.74 1.83501 101.66 2.62864 102.314 3.63688C102.977 4.64513 103.308 5.7981 103.308 7.09586H98.8845C98.8845 6.45697 98.7507 5.89797 98.4837 5.4188C98.2262 4.92963 97.8305 4.5453 97.2959 4.26579C96.7714 3.98627 96.1081 3.84652 95.3064 3.84652C94.5346 3.84652 93.8911 3.96631 93.3768 4.20589C92.8619 4.43549 92.4758 4.74995 92.2183 5.14924C91.9614 5.53856 91.8327 5.9778 91.8327 6.46694C91.8327 6.83632 91.9214 7.17074 92.0998 7.4702C92.2878 7.76971 92.565 8.04918 92.9313 8.30878C93.2972 8.56832 93.7477 8.81289 94.2823 9.04248C94.8164 9.27207 95.4351 9.4967 96.138 9.71633C97.3156 10.0757 98.3499 10.48 99.2407 10.9292C100.141 11.3784 100.894 11.8825 101.497 12.4416C102.101 13.0006 102.556 13.6345 102.863 14.3433C103.17 15.052 103.323 15.8556 103.323 16.7541C103.323 17.7024 103.14 18.5509 102.774 19.2997C102.408 20.0483 101.878 20.6822 101.186 21.2014C100.492 21.7204 99.6664 22.1148 98.7061 22.3843C97.7464 22.6538 96.6721 22.7886 95.4848 22.7886C94.4156 22.7886 93.3615 22.6488 92.3222 22.3693C91.2834 22.0798 90.3378 21.6456 89.487 21.0666C88.6458 20.4876 87.9724 19.7489 87.4677 18.8504C86.963 17.952 86.7106 16.8889 86.7106 15.661H91.1795C91.1795 16.3398 91.2834 16.9138 91.4912 17.383C91.6989 17.8521 91.9908 18.2315 92.3668 18.521C92.753 18.8105 93.2085 19.0201 93.733 19.1499C94.2671 19.2797 94.8514 19.3446 95.4848 19.3446C96.2565 19.3446 96.89 19.2347 97.385 19.0151C97.8898 18.7955 98.2607 18.491 98.4984 18.1017C98.7456 17.7124 98.8693 17.2732 98.8693 16.784ZM120.856 18.9852V22.4891H109.351V18.9852H120.856ZM110.806 0.687012V22.4891H106.352V0.687012H110.806ZM119.357 9.56657V12.9806H109.351V9.56657H119.357ZM120.841 0.687012V4.20589H109.351V0.687012H120.841ZM133.416 0.687012V22.4891H128.977V0.687012H133.416ZM140.067 0.687012V4.20589H122.43V0.687012H140.067ZM166.507 11.0939V19.7339C166.171 20.1432 165.651 20.5874 164.949 21.0666C164.246 21.5358 163.34 21.9401 162.231 22.2794C161.123 22.6189 159.782 22.7886 158.208 22.7886C156.813 22.7886 155.541 22.559 154.393 22.0998C153.245 21.6306 152.255 20.9468 151.424 20.0483C150.602 19.1499 149.969 18.0518 149.523 16.7541C149.078 15.4463 148.856 13.9539 148.856 12.2768V10.9142C148.856 9.23716 149.068 7.74472 149.494 6.43704C149.929 5.12931 150.548 4.0262 151.35 3.12777C152.151 2.22933 153.107 1.54552 154.215 1.07634C155.324 0.60715 156.555 0.372559 157.911 0.372559C159.792 0.372559 161.336 0.682018 162.544 1.30094C163.751 1.90989 164.671 2.75841 165.305 3.84652C165.948 4.92464 166.344 6.16247 166.493 7.56005H162.172C162.063 6.82134 161.855 6.17744 161.549 5.62841C161.242 5.07937 160.801 4.65012 160.227 4.34066C159.663 4.0312 158.931 3.87646 158.03 3.87646C157.288 3.87646 156.625 4.0312 156.041 4.34066C155.467 4.64013 154.982 5.08437 154.586 5.67334C154.19 6.26234 153.888 6.99103 153.68 7.85956C153.472 8.72804 153.369 9.73626 153.369 10.8843V12.2768C153.369 13.4149 153.477 14.4231 153.695 15.3016C153.913 16.1701 154.235 16.9038 154.66 17.5027C155.095 18.0918 155.63 18.536 156.264 18.8355C156.897 19.1349 157.634 19.2847 158.475 19.2847C159.178 19.2847 159.762 19.2248 160.227 19.105C160.703 18.9852 161.084 18.8404 161.37 18.6707C161.667 18.491 161.895 18.3213 162.054 18.1616V14.2983H157.986V11.0939H166.507ZM187.856 11.0789V12.1122C187.856 13.7693 187.633 15.2567 187.187 16.5744C186.742 17.8921 186.113 19.0151 185.302 19.9435C184.49 20.8619 183.52 21.5657 182.392 22.0549C181.274 22.544 180.032 22.7886 178.666 22.7886C177.31 22.7886 176.068 22.544 174.94 22.0549C173.821 21.5657 172.851 20.8619 172.03 19.9435C171.208 19.0151 170.57 17.8921 170.115 16.5744C169.669 15.2567 169.447 13.7693 169.447 12.1122V11.0789C169.447 9.41186 169.669 7.92442 170.115 6.61669C170.56 5.299 171.188 4.17594 172 3.24756C172.822 2.31917 173.792 1.61041 174.91 1.12126C176.038 0.632108 177.28 0.387532 178.636 0.387532C180.002 0.387532 181.244 0.632108 182.363 1.12126C183.491 1.61041 184.461 2.31917 185.272 3.24756C186.094 4.17594 186.727 5.299 187.173 6.61669C187.628 7.92442 187.856 9.41186 187.856 11.0789ZM183.357 12.1122V11.049C183.357 9.89102 183.253 8.87279 183.046 7.99429C182.837 7.11584 182.531 6.37714 182.125 5.77816C181.719 5.17919 181.224 4.72998 180.641 4.4305C180.056 4.12104 179.389 3.96631 178.636 3.96631C177.884 3.96631 177.216 4.12104 176.632 4.4305C176.058 4.72998 175.568 5.17919 175.162 5.77816C174.767 6.37714 174.465 7.11584 174.257 7.99429C174.049 8.87279 173.945 9.89102 173.945 11.049V12.1122C173.945 13.2602 174.049 14.2784 174.257 15.1668C174.465 16.0453 174.772 16.789 175.177 17.398C175.583 17.9969 176.078 18.4511 176.662 18.7606C177.246 19.07 177.914 19.2248 178.666 19.2248C179.418 19.2248 180.086 19.07 180.67 18.7606C181.254 18.4511 181.744 17.9969 182.14 17.398C182.536 16.789 182.837 16.0453 183.046 15.1668C183.253 14.2784 183.357 13.2602 183.357 12.1122Z" fill="black"/>
</g>
<defs>
<clipPath id="clip0_96_182">
<rect width="188" height="23" fill="white"/>
</clipPath>
</defs>
</svg>
