<svg width="187" height="41" viewBox="0 0 187 41" fill="none" xmlns="http://www.w3.org/2000/svg">
<path d="M50.818 19.5972V20.4269C50.818 21.7575 50.6387 22.9519 50.2802 24.01C49.9217 25.0682 49.4159 25.9699 48.7626 26.7154C48.1093 27.4529 47.3286 28.0181 46.4204 28.4108C45.5202 28.8036 44.5203 29 43.4209 29C42.3295 29 41.3297 28.8036 40.4215 28.4108C39.5213 28.0181 38.7405 27.4529 38.0793 26.7154C37.4181 25.9699 36.9042 25.0682 36.5377 24.01C36.1792 22.9519 36 21.7575 36 20.4269V19.5972C36 18.2585 36.1792 17.0641 36.5377 16.014C36.8962 14.9559 37.4021 14.0541 38.0554 13.3086C38.7166 12.5631 39.4974 11.994 40.3976 11.6012C41.3058 11.2084 42.3056 11.012 43.397 11.012C44.4964 11.012 45.4963 11.2084 46.3965 11.6012C47.3047 11.994 48.0854 12.5631 48.7387 13.3086C49.3999 14.0541 49.9098 14.9559 50.2683 16.014C50.6347 17.0641 50.818 18.2585 50.818 19.5972ZM47.1971 20.4269V19.5732C47.1971 18.6433 47.1135 17.8257 46.9462 17.1202C46.7789 16.4148 46.5319 15.8217 46.2053 15.3407C45.8787 14.8597 45.4803 14.499 45.0103 14.2585C44.5402 14.01 44.0025 13.8858 43.397 13.8858C42.7916 13.8858 42.2538 14.01 41.7838 14.2585C41.3217 14.499 40.9274 14.8597 40.6007 15.3407C40.2821 15.8217 40.0391 16.4148 39.8718 17.1202C39.7045 17.8257 39.6208 18.6433 39.6208 19.5732V20.4269C39.6208 21.3487 39.7045 22.1663 39.8718 22.8798C40.0391 23.5852 40.286 24.1824 40.6127 24.6714C40.9393 25.1523 41.3377 25.517 41.8077 25.7656C42.2777 26.014 42.8155 26.1383 43.4209 26.1383C44.0264 26.1383 44.5641 26.014 45.0342 25.7656C45.5042 25.517 45.8986 25.1523 46.2172 24.6714C46.5359 24.1824 46.7789 23.5852 46.9462 22.8798C47.1135 22.1663 47.1971 21.3487 47.1971 20.4269ZM60.1748 22.519H55.7414V19.7054H60.1748C60.8599 19.7054 61.4176 19.5932 61.8478 19.3687C62.278 19.1363 62.5927 18.8156 62.7918 18.4068C62.991 17.998 63.0906 17.5371 63.0906 17.024C63.0906 16.503 62.991 16.018 62.7918 15.5691C62.5927 15.1203 62.278 14.7595 61.8478 14.487C61.4176 14.2144 60.8599 14.0782 60.1748 14.0782H56.9841V28.7595H53.3992V11.2525H60.1748C61.5371 11.2525 62.7042 11.501 63.6762 11.998C64.656 12.487 65.4049 13.1643 65.9227 14.0301C66.4406 14.8958 66.6995 15.8858 66.6995 17C66.6995 18.1303 66.4406 19.1082 65.9227 19.9339C65.4049 20.7595 64.656 21.3968 63.6762 21.8457C62.7042 22.2946 61.5371 22.519 60.1748 22.519ZM80.8484 25.9459V28.7595H71.587V25.9459H80.8484ZM72.7581 11.2525V28.7595H69.1732V11.2525H72.7581ZM79.6414 18.3828V21.1243H71.587V18.3828H79.6414ZM80.8362 11.2525V14.0782H71.587V11.2525H80.8362ZM97.1001 11.2525V28.7595H93.5151L86.5246 17.024V28.7595H82.9397V11.2525H86.5246L93.5273 23V11.2525H97.1001ZM115.372 24.1784C115.372 23.8658 115.324 23.5852 115.228 23.3367C115.141 23.0802 114.974 22.8477 114.726 22.6393C114.48 22.4228 114.133 22.2104 113.687 22.002C113.241 21.7936 112.663 21.5772 111.954 21.3527C111.165 21.0962 110.417 20.8076 109.708 20.487C109.006 20.1663 108.385 19.7936 107.843 19.3687C107.31 18.9359 106.887 18.4349 106.577 17.8657C106.274 17.2966 106.123 16.6353 106.123 15.8817C106.123 15.1523 106.282 14.491 106.6 13.8978C106.919 13.2966 107.365 12.7836 107.939 12.3587C108.512 11.9259 109.19 11.5932 109.97 11.3607C110.759 11.1283 111.623 11.012 112.564 11.012C113.846 11.012 114.965 11.2445 115.921 11.7094C116.878 12.1743 117.618 12.8116 118.144 13.6212C118.678 14.4309 118.945 15.3567 118.945 16.3988H115.384C115.384 15.8858 115.276 15.4369 115.061 15.0521C114.854 14.6593 114.535 14.3507 114.105 14.1263C113.683 13.9018 113.149 13.7896 112.504 13.7896C111.882 13.7896 111.364 13.8858 110.95 14.0782C110.536 14.2625 110.225 14.515 110.018 14.8357C109.811 15.1483 109.708 15.501 109.708 15.8938C109.708 16.1904 109.779 16.4589 109.923 16.6994C110.074 16.9399 110.297 17.1643 110.592 17.3728C110.886 17.5812 111.249 17.7776 111.679 17.9619C112.109 18.1463 112.607 18.3267 113.173 18.503C114.121 18.7916 114.954 19.1162 115.671 19.477C116.395 19.8377 117.001 20.2425 117.487 20.6914C117.973 21.1403 118.339 21.6493 118.586 22.2184C118.833 22.7876 118.957 23.4329 118.957 24.1543C118.957 24.9159 118.809 25.5972 118.514 26.1984C118.22 26.7996 117.794 27.3086 117.236 27.7255C116.678 28.1423 116.013 28.4589 115.24 28.6754C114.468 28.8918 113.603 29 112.647 29C111.787 29 110.938 28.8878 110.102 28.6633C109.265 28.4309 108.504 28.0822 107.819 27.6173C107.142 27.1523 106.6 26.5591 106.194 25.8377C105.788 25.1162 105.585 24.2625 105.585 23.2766H109.182C109.182 23.8217 109.265 24.2826 109.433 24.6593C109.6 25.0361 109.835 25.3407 110.138 25.5731C110.448 25.8056 110.815 25.974 111.237 26.0782C111.667 26.1824 112.137 26.2345 112.647 26.2345C113.269 26.2345 113.778 26.1463 114.177 25.9699C114.583 25.7936 114.882 25.5491 115.073 25.2365C115.272 24.9239 115.372 24.5711 115.372 24.1784ZM133.07 25.9459V28.7595H123.808V25.9459H133.07ZM124.98 11.2525V28.7595H121.395V11.2525H124.98ZM131.863 18.3828V21.1243H123.808V18.3828H131.863ZM133.058 11.2525V14.0782H123.808V11.2525H133.058ZM143.179 11.2525V28.7595H139.606V11.2525H143.179ZM148.533 11.2525V14.0782H134.337V11.2525H148.533ZM169.816 19.6092V26.5471C169.545 26.8758 169.127 27.2325 168.561 27.6173C167.995 27.994 167.267 28.3187 166.374 28.5912C165.482 28.8637 164.402 29 163.136 29C162.013 29 160.989 28.8156 160.065 28.4469C159.141 28.0702 158.344 27.521 157.675 26.7996C157.013 26.0782 156.504 25.1964 156.145 24.1543C155.786 23.1042 155.607 21.9058 155.607 20.5591V19.4649C155.607 18.1183 155.779 16.9198 156.121 15.8698C156.472 14.8197 156.97 13.9339 157.615 13.2124C158.26 12.491 159.029 11.9419 159.921 11.5651C160.814 11.1884 161.805 11 162.897 11C164.41 11 165.653 11.2485 166.625 11.7455C167.597 12.2345 168.338 12.9158 168.848 13.7896C169.366 14.6553 169.685 15.6493 169.804 16.7715H166.326C166.239 16.1784 166.071 15.6613 165.825 15.2204C165.577 14.7796 165.223 14.4349 164.761 14.1864C164.307 13.9379 163.717 13.8136 162.992 13.8136C162.395 13.8136 161.861 13.9379 161.391 14.1864C160.929 14.4269 160.539 14.7836 160.22 15.2565C159.901 15.7295 159.659 16.3146 159.491 17.012C159.324 17.7094 159.24 18.519 159.24 19.4409V20.5591C159.24 21.473 159.328 22.2826 159.503 22.988C159.678 23.6854 159.937 24.2746 160.28 24.7555C160.63 25.2285 161.06 25.5852 161.57 25.8257C162.08 26.0661 162.674 26.1864 163.351 26.1864C163.917 26.1864 164.386 26.1383 164.761 26.0421C165.143 25.9459 165.45 25.8297 165.681 25.6934C165.92 25.5491 166.103 25.4128 166.231 25.2846V22.1824H162.957V19.6092H169.816ZM187 19.5972V20.4269C187 21.7575 186.821 22.9519 186.462 24.01C186.104 25.0682 185.598 25.9699 184.945 26.7154C184.291 27.4529 183.51 28.0181 182.603 28.4108C181.702 28.8036 180.702 29 179.603 29C178.511 29 177.512 28.8036 176.604 28.4108C175.703 28.0181 174.922 27.4529 174.261 26.7154C173.6 25.9699 173.086 25.0682 172.72 24.01C172.361 22.9519 172.182 21.7575 172.182 20.4269V19.5972C172.182 18.2585 172.361 17.0641 172.72 16.014C173.078 14.9559 173.584 14.0541 174.237 13.3086C174.899 12.5631 175.679 11.994 176.58 11.6012C177.488 11.2084 178.488 11.012 179.579 11.012C180.678 11.012 181.678 11.2084 182.578 11.6012C183.487 11.994 184.268 12.5631 184.921 13.3086C185.582 14.0541 186.092 14.9559 186.45 16.014C186.817 17.0641 187 18.2585 187 19.5972ZM183.379 20.4269V19.5732C183.379 18.6433 183.296 17.8257 183.128 17.1202C182.961 16.4148 182.714 15.8217 182.387 15.3407C182.06 14.8597 181.662 14.499 181.192 14.2585C180.722 14.01 180.185 13.8858 179.579 13.8858C178.973 13.8858 178.436 14.01 177.966 14.2585C177.504 14.499 177.109 14.8597 176.783 15.3407C176.464 15.8217 176.221 16.4148 176.054 17.1202C175.887 17.8257 175.803 18.6433 175.803 19.5732V20.4269C175.803 21.3487 175.887 22.1663 176.054 22.8798C176.221 23.5852 176.468 24.1824 176.795 24.6714C177.121 25.1523 177.52 25.517 177.99 25.7656C178.46 26.014 178.998 26.1383 179.603 26.1383C180.208 26.1383 180.746 26.014 181.216 25.7656C181.686 25.517 182.08 25.1523 182.399 24.6714C182.718 24.1824 182.961 23.5852 183.128 22.8798C183.296 22.1663 183.379 21.3487 183.379 20.4269Z" fill="black"/>
<path fill-rule="evenodd" clip-rule="evenodd" d="M27.7552 21.065C27.7658 21.0467 27.7763 21.028 27.7864 21.0092C28.9995 18.7538 29.5807 16.2127 29.451 13.6452C29.2867 10.3918 27.9908 7.28971 25.7764 4.8487C23.5619 2.40769 20.5607 0.773035 17.2659 0.213405C13.9711 -0.346224 10.5789 0.202473 7.64677 1.76931C4.71463 3.33615 2.41705 5.8279 1.13166 8.83501C-0.153726 11.8421 -0.350433 15.1857 0.573871 18.3161C0.800383 19.0832 1.10577 19.7651 1.47794 20.3851C0.459954 22.4286 -0.0521252 24.692 0.0041927 26.9915C0.0854805 30.3105 1.3459 33.4994 3.5707 36.0149C5.79549 38.5303 8.847 40.2166 12.2053 40.7865C15.5636 41.3563 19.0209 40.7745 21.9881 39.1401C24.9552 37.5057 27.2488 34.9198 28.4778 31.8231C29.7069 28.7265 29.3293 23.721 28.4778 22.2567C28.2293 21.8294 27.99 21.4337 27.7552 21.065ZM4.69915 23.7708C4.39507 24.7764 4.24991 25.8289 4.27596 26.8922C4.33367 29.2488 5.22857 31.5129 6.80817 33.2988C8.38778 35.0848 10.5544 36.2821 12.9387 36.6867C15.3231 37.0913 17.7778 36.6782 19.8845 35.5178C21.9912 34.3573 23.6196 32.5214 24.4922 30.3227C25.3649 28.1241 25.259 25.9174 24.4922 24.1603C23.6781 22.2945 21.4392 20.7367 19.3953 19.4742C18.2779 18.784 17.3037 18.3519 16.2701 17.8934L16.2701 17.8934L16.2701 17.8933C15.6815 17.6323 15.0737 17.3626 14.4092 17.032C13.8078 16.7327 13.4114 16.1419 13.3275 15.4755C13.1423 14.0049 14.505 12.8014 15.9256 13.2244C18.2999 13.9313 19.5328 14.5095 21.9881 15.8137C23.0575 16.3818 23.9238 16.9194 24.6786 17.5142C25.0721 16.3411 25.2463 15.0998 25.1832 13.8496C25.0665 11.5397 24.1465 9.33725 22.5742 7.60413C21.002 5.87102 18.8711 4.71041 16.5318 4.31307C14.1925 3.91574 11.784 4.30531 9.70219 5.41777C7.62037 6.53022 5.98908 8.29936 5.07646 10.4344C4.16384 12.5695 4.02417 14.9434 4.68043 17.166C5.28036 19.1978 6.79153 20.2854 8.52689 21.4784C8.85552 21.7043 9.20697 21.8947 9.56054 22.0792C10.0476 22.3332 10.524 22.6269 11 22.9208C10.685 22.1648 11.029 21.3007 11.7865 20.9709C12.5609 20.6338 13.4744 20.9828 13.8267 21.7505L16.0219 26.5335C16.2292 26.9851 16.1961 27.4809 15.9761 27.8813C15.8234 28.2675 15.5026 28.5831 15.0717 28.7163L9.32769 30.4921C8.5655 30.7277 7.7472 30.3039 7.49997 29.5453C7.25275 28.7868 7.67021 27.9809 8.43241 27.7453L10.0216 27.254C8.78195 26.6093 7.59531 25.8193 6.4651 25.0396C5.84817 24.614 5.25636 24.1972 4.69915 23.7708Z" fill="#3E1B6C"/>
</svg>
