<svg width="739" height="1029" viewBox="0 0 739 1029" fill="none" xmlns="http://www.w3.org/2000/svg">
<path fill-rule="evenodd" clip-rule="evenodd" d="M696.04 528.278C726.985 471.367 741.833 407.112 738.554 342.185C734.433 260.599 701.936 182.807 646.403 121.593C590.871 60.3785 515.607 19.3857 432.983 5.35164C350.359 -8.68239 265.291 5.07747 191.761 44.3696C118.23 83.6618 60.6131 146.148 28.3791 221.559C-3.85504 296.969 -8.78792 380.816 14.3912 459.319C20.0716 478.557 27.7301 495.657 37.0634 511.205C11.5346 562.45 -1.30717 619.211 0.105142 676.876C2.14363 760.109 33.7516 840.079 89.5436 903.159C145.335 966.239 221.859 1008.53 306.076 1022.82C390.293 1037.11 476.993 1022.52 551.402 981.531C625.811 940.545 683.327 875.699 714.148 798.042C744.969 720.385 735.501 594.861 714.148 558.14C707.922 547.433 701.925 537.517 696.04 528.278ZM117.843 596.11C110.217 621.327 106.577 647.721 107.23 674.388C108.677 733.483 131.119 790.261 170.731 835.048C210.343 879.835 264.675 909.86 324.469 920.006C384.263 930.153 445.82 919.793 498.65 890.693C551.481 861.592 592.317 815.552 614.2 760.415C636.083 705.279 633.428 649.942 614.2 605.877C593.783 559.088 537.638 520.023 486.383 488.363C458.361 471.054 433.932 460.218 408.012 448.72C389.001 440.287 369.187 431.498 346.566 419.539C340.899 416.543 337.093 410.926 336.292 404.566L328.213 340.404C326.446 326.368 339.448 314.988 353.111 318.653C446.329 343.662 475.692 356.35 551.402 396.569C578.22 410.815 599.945 424.296 618.874 439.211C628.742 409.792 633.111 378.662 631.528 347.312C628.602 289.386 605.529 234.153 566.101 190.691C526.673 147.23 473.236 118.125 414.573 108.16C355.91 98.1963 295.512 107.966 243.305 135.863C191.099 163.761 150.19 208.126 127.304 261.667C104.418 315.209 100.916 374.74 117.373 430.477C132.898 483.057 172.757 510.422 218.017 541.496L218.074 541.535L218.32 541.705C220.428 543.152 222.548 544.607 224.677 546.074C225.704 546.781 226.797 547.391 227.933 547.906C244.304 555.338 260.069 565.051 275.818 574.773L265.729 552.79C262.791 546.388 265.645 538.918 272.104 536.106L319.044 515.672C325.503 512.86 333.122 515.771 336.06 522.173L412.465 688.648C414.91 693.977 413.344 700.044 409.026 703.551C408.194 707.967 405.006 711.776 400.38 713.206L211.492 771.602C204.762 773.682 197.536 769.94 195.353 763.242L180.807 718.614C178.624 711.916 182.31 704.799 189.041 702.719L251.326 683.463C220.235 667.295 190.473 647.481 162.127 627.926C146.657 617.254 131.816 606.802 117.843 596.11Z" fill="#3E1B6C"/>
</svg>
